StickNoBills-Bold.ufo
<glyph name="uni0021" format="1">
  <advance width="244"/>
  <unicode hex="0021"/>
  <outline>
    <contour>
      <point x="47" y="53" type="curve" smooth="yes"/>
      <point x="47" y="95"/>
      <point x="80" y="129"/>
      <point x="122" y="129" type="curve" smooth="yes"/>
      <point x="164" y="129"/>
      <point x="197" y="95"/>
      <point x="197" y="53" type="curve" smooth="yes"/>
      <point x="197" y="11"/>
      <point x="164" y="-22"/>
      <point x="122" y="-22" type="curve" smooth="yes"/>
      <point x="80" y="-22"/>
      <point x="47" y="11"/>
    </contour>
    <contour>
      <point x="59" y="166" type="line"/>
      <point x="59" y="700" type="line"/>
      <point x="188" y="700" type="line"/>
      <point x="188" y="166" type="line"/>
    </contour>
  </outline>
</glyph>
<glyph name="uni0022" format="1">
  <advance width="392"/>
  <unicode hex="0022"/>
  <outline>
    <contour>
      <point x="43" y="465" type="line"/>
      <point x="43" y="736" type="line"/>
      <point x="170" y="736" type="line"/>
      <point x="170" y="465" type="line"/>
    </contour>
    <contour>
      <point x="223" y="465" type="line"/>
      <point x="223" y="736" type="line"/>
      <point x="350" y="736" type="line"/>
      <point x="350" y="465" type="line"/>
    </contour>
  </outline>
</glyph>
<glyph name="uni0023" format="1">
  <advance width="888"/>
  <unicode hex="0023"/>
  <outline>
    <contour>
      <point x="101" y="176" type="line"/>
      <point x="126" y="297" type="line"/>
      <point x="263" y="297" type="line"/>
      <point x="281" y="404" type="line"/>
      <point x="135" y="404" type="line"/>
      <point x="157" y="525" type="line"/>
      <point x="303" y="525" type="line"/>
      <point x="330" y="682" type="line"/>
      <point x="451" y="682" type="line"/>
      <point x="423" y="524" type="line"/>
      <point x="529" y="524" type="line"/>
      <point x="556" y="682" type="line"/>
      <point x="677" y="682" type="line"/>
      <point x="649" y="524" type="line"/>
      <point x="787" y="524" type="line"/>
      <point x="768" y="403" type="line"/>
      <point x="628" y="404" type="line"/>
      <point x="609" y="296" type="line"/>
      <point x="752" y="296" type="line"/>
      <point x="734" y="175" type="line"/>
      <point x="588" y="176" type="line"/>
      <point x="561" y="22" type="line"/>
      <point x="441" y="22" type="line"/>
      <point x="467" y="176" type="line"/>
      <point x="362" y="176" type="line"/>
      <point x="335" y="22" type="line"/>
      <point x="214" y="22" type="line"/>
      <point x="241" y="176" type="line"/>
    </contour>
    <contour>
      <point x="383" y="297" type="line"/>
      <point x="489" y="296" type="line"/>
      <point x="507" y="404" type="line"/>
      <point x="402" y="404" type="line"/>
    </contour>
  </outline>
</glyph>
<glyph name="uni0027" format="1">
  <advance width="212"/>
  <unicode hex="0027"/>
  <outline>
    <contour>
      <point x="43" y="465" type="line"/>
      <point x="43" y="736" type="line"/>
      <point x="170" y="736" type="line"/>
      <point x="170" y="465" type="line"/>
    </contour>
  </outline>
</glyph>
<glyph name="uni0028" format="1">
  <advance width="202"/>
  <unicode hex="0028"/>
  <outline>
    <contour>
      <point x="40" y="189" type="curve"/>
      <point x="40" y="510" type="line"/>
      <point x="40" y="652"/>
      <point x="103" y="696"/>
      <point x="202" y="735" type="curve"/>
      <point x="203" y="648" type="line"/>
      <point x="164" y="625"/>
      <point x="144" y="593"/>
      <point x="143" y="521" type="curve" smooth="yes"/>
      <point x="143" y="208" type="line" smooth="yes"/>
      <point x="143" y="206"/>
      <point x="143" y="204"/>
      <point x="143" y="202" type="curve" smooth="yes"/>
      <point x="143" y="104"/>
      <point x="168" y="73"/>
      <point x="203" y="51" type="curve"/>
      <point x="203" y="-37" type="line"/>
      <point x="61" y="22"/>
      <point x="40" y="93"/>
    </contour>
  </outline>
</glyph>
<glyph name="uni0029" format="1">
  <advance width="202"/>
  <unicode hex="0029"/>
  <outline>
    <contour>
      <point x="-1" y="-37" type="line"/>
      <point x="141" y="22"/>
      <point x="162" y="93"/>
      <point x="162" y="189" type="curve"/>
      <point x="162" y="510" type="line"/>
      <point x="162" y="652"/>
      <point x="99" y="696"/>
      <point x="0" y="735" type="curve"/>
      <point x="-1" y="648" type="line"/>
      <point x="38" y="625"/>
      <point x="58" y="593"/>
      <point x="59" y="521" type="curve" smooth="yes"/>
      <point x="59" y="208" type="line" smooth="yes"/>
      <point x="59" y="206"/>
      <point x="59" y="204"/>
      <point x="59" y="202" type="curve" smooth="yes"/>
      <point x="59" y="104"/>
      <point x="34" y="73"/>
      <point x="-1" y="51" type="curve"/>
    </contour>
  </outline>
</glyph>
<glyph name="uni002A" format="1">
  <advance width="324"/>
  <unicode hex="002A"/>
  <outline>
    <contour>
      <point x="15" y="691" type="line"/>
      <point x="57" y="748" type="line"/>
      <point x="125" y="704" type="line"/>
      <point x="125" y="785" type="line"/>
      <point x="196" y="785" type="line"/>
      <point x="196" y="702" type="line"/>
      <point x="267" y="748" type="line"/>
      <point x="309" y="691" type="line"/>
      <point x="221" y="632" type="line"/>
      <point x="308" y="572" type="line"/>
      <point x="267" y="515" type="line"/>
      <point x="196" y="565" type="line"/>
      <point x="196" y="478" type="line"/>
      <point x="125" y="478" type="line"/>
      <point x="125" y="564" type="line"/>
      <point x="57" y="517" type="line"/>
      <point x="16" y="574" type="line"/>
      <point x="103" y="633" type="line"/>
    </contour>
  </outline>
</glyph>
<glyph name="uni002B" format="1">
  <advance width="405"/>
  <unicode hex="002B"/>
  <outline>
    <contour>
      <point x="15" y="230" type="line"/>
      <point x="15" y="357" type="line"/>
      <point x="138" y="357" type="line"/>
      <point x="138" y="498" type="line"/>
      <point x="265" y="498" type="line"/>
      <point x="265" y="357" type="line"/>
      <point x="390" y="357" type="line"/>
      <point x="390" y="230" type="line"/>
      <point x="265" y="230" type="line"/>
      <point x="265" y="87" type="line"/>
      <point x="138" y="87" type="line"/>
      <point x="138" y="230" type="line"/>
    </contour>
  </outline>
</glyph>
<glyph name="uni002C" format="1">
  <advance width="265"/>
  <unicode hex="002C"/>
  <outline>
    <contour>
      <point x="51" y="-23" type="line"/>
      <point x="88" y="129" type="line"/>
      <point x="215" y="129" type="line"/>
      <point x="178" y="-23" type="line"/>
    </contour>
  </outline>
</glyph>
<glyph name="uni002D" format="1">
  <advance width="416"/>
  <unicode hex="002D"/>
  <outline>
    <contour>
      <point x="50" y="230" type="line"/>
      <point x="50" y="357" type="line"/>
      <point x="366" y="357" type="line"/>
      <point x="366" y="230" type="line"/>
    </contour>
  </outline>
</glyph>
<glyph name="uni002E" format="1">
  <advance width="180"/>
  <unicode hex="002E"/>
  <outline>
    <contour>
      <point x="15" y="53" type="curve" smooth="yes"/>
      <point x="15" y="95"/>
      <point x="48" y="129"/>
      <point x="90" y="129" type="curve" smooth="yes"/>
      <point x="132" y="129"/>
      <point x="165" y="95"/>
      <point x="165" y="53" type="curve" smooth="yes"/>
      <point x="165" y="11"/>
      <point x="132" y="-22"/>
      <point x="90" y="-22" type="curve" smooth="yes"/>
      <point x="48" y="-22"/>
      <point x="15" y="11"/>
    </contour>
  </outline>
</glyph>
<glyph name="uni002F" format="1">
  <advance width="401"/>
  <unicode hex="002F"/>
  <outline>
    <contour>
      <point x="50" y="-23" type="line"/>
      <point x="225" y="716" type="line"/>
      <point x="351" y="716" type="line"/>
      <point x="177" y="-23" type="line"/>
    </contour>
  </outline>
</glyph>
<glyph name="uni0030" format="1">
  <advance width="506"/>
  <unicode hex="0030"/>
  <outline>
    <contour>
      <point x="40" y="353" type="curve" smooth="yes"/>
      <point x="40" y="602"/>
      <point x="134" y="693"/>
      <point x="223" y="698" type="curve"/>
      <point x="223" y="573" type="line"/>
      <point x="170" y="560"/>
      <point x="165" y="461"/>
      <point x="165" y="398" type="curve" smooth="yes"/>
      <point x="165" y="371"/>
      <point x="165" y="360"/>
      <point x="165" y="339" type="curve" smooth="yes"/>
      <point x="165" y="248"/>
      <point x="167" y="137"/>
      <point x="222" y="124" type="curve"/>
      <point x="222" y="0" type="line"/>
      <point x="156" y="3"/>
      <point x="40" y="60"/>
    </contour>
    <contour>
      <point x="283" y="573" type="curve"/>
      <point x="283" y="698" type="line"/>
      <point x="372" y="693"/>
      <point x="466" y="602"/>
      <point x="466" y="353" type="curve" smooth="yes"/>
      <point x="466" y="60"/>
      <point x="350" y="3"/>
      <point x="284" y="0" type="curve"/>
      <point x="284" y="124" type="line"/>
      <point x="339" y="137"/>
      <point x="341" y="248"/>
      <point x="341" y="339" type="curve" smooth="yes"/>
      <point x="341" y="360"/>
      <point x="341" y="371"/>
      <point x="341" y="398" type="curve" smooth="yes"/>
      <point x="341" y="461"/>
      <point x="336" y="560"/>
    </contour>
  </outline>
</glyph>
<glyph name="uni0031" format="1">
  <advance width="288"/>
  <unicode hex="0031"/>
  <outline>
    <contour>
      <point x="40" y="439" type="line"/>
      <point x="40" y="640" type="line"/>
      <point x="116" y="699" type="line"/>
      <point x="246" y="699" type="line"/>
      <point x="246" y="0" type="line"/>
      <point x="116" y="0" type="line"/>
      <point x="116" y="499" type="line"/>
    </contour>
  </outline>
</glyph>
<glyph name="uni0032" format="1">
  <advance width="485"/>
  <unicode hex="0032"/>
  <outline>
    <contour>
      <point x="30" y="520" type="line"/>
      <point x="39" y="604"/>
      <point x="101" y="687"/>
      <point x="196" y="699" type="curve"/>
      <point x="196" y="573" type="line" smooth="yes"/>
      <point x="195" y="573"/>
      <point x="148" y="557"/>
      <point x="148" y="495" type="curve"/>
    </contour>
    <contour>
      <point x="49" y="0" type="line"/>
      <point x="49" y="127" type="line"/>
      <point x="453" y="127" type="line"/>
      <point x="453" y="0" type="line"/>
    </contour>
    <contour>
      <point x="51" y="179" type="line"/>
      <point x="111" y="302"/>
      <point x="211" y="359"/>
      <point x="241" y="384" type="curve" smooth="yes"/>
      <point x="284.45" y="421.388"/>
      <point x="336" y="433.06"/>
      <point x="336" y="497" type="curve" smooth="yes"/>
      <point x="336" y="547"/>
      <point x="306" y="572"/>
      <point x="251" y="574" type="curve"/>
      <point x="251" y="700" type="line"/>
      <point x="409.495" y="700"/>
      <point x="457.94" y="578.608"/>
      <point x="459" y="497" type="curve" smooth="yes"/>
      <point x="459" y="390.556"/>
      <point x="410.228" y="358.865"/>
      <point x="348" y="315" type="curve" smooth="yes"/>
      <point x="277" y="265"/>
      <point x="237" y="232"/>
      <point x="203" y="179" type="curve"/>
    </contour>
  </outline>
</glyph>
<glyph name="uni0033" format="1">
  <advance width="484"/>
  <unicode hex="0033"/>
  <outline>
    <contour>
      <point x="26" y="97" type="curve"/>
      <point x="132" y="160" type="line"/>
      <point x="146" y="139"/>
      <point x="166" y="127"/>
      <point x="195" y="125" type="curve"/>
      <point x="195" y="-1" type="line"/>
      <point x="117" y="-1"/>
      <point x="60" y="30"/>
    </contour>
    <contour>
      <point x="26" y="600" type="line"/>
      <point x="59" y="656"/>
      <point x="117" y="698"/>
      <point x="195" y="698" type="curve"/>
      <point x="195" y="572" type="line"/>
      <point x="166" y="570"/>
      <point x="146" y="558"/>
      <point x="132" y="537" type="curve"/>
    </contour>
    <contour>
      <point x="188" y="286" type="curve"/>
      <point x="188" y="410" type="line"/>
      <point x="308" y="410"/>
      <point x="327" y="439"/>
      <point x="327" y="499" type="curve" smooth="yes"/>
      <point x="327" y="553"/>
      <point x="286" y="574"/>
      <point x="256" y="574" type="curve" smooth="yes"/>
      <point x="255" y="574"/>
      <point x="253" y="574"/>
      <point x="252" y="574" type="curve"/>
      <point x="252" y="698" type="line"/>
      <point x="386" y="695"/>
      <point x="453" y="582"/>
      <point x="453" y="508" type="curve" smooth="yes"/>
      <point x="453" y="411"/>
      <point x="422" y="366"/>
      <point x="391" y="350" type="curve"/>
      <point x="419" y="331"/>
      <point x="458" y="284"/>
      <point x="458" y="199" type="curve" smooth="yes"/>
      <point x="458" y="75"/>
      <point x="337" y="0"/>
      <point x="257" y="0" type="curve" smooth="yes"/>
      <point x="256" y="0"/>
      <point x="256" y="0"/>
      <point x="255" y="0" type="curve"/>
      <point x="254" y="122" type="line"/>
      <point x="297" y="122"/>
      <point x="327" y="161"/>
      <point x="327" y="201" type="curve" smooth="yes"/>
      <point x="327" y="261"/>
      <point x="306" y="286"/>
    </contour>
  </outline>
</glyph>
<glyph name="uni0035" format="1">
  <advance width="470"/>
  <unicode hex="0035"/>
  <outline>
    <contour>
      <point x="15" y="354" type="line"/>
      <point x="44" y="700" type="line"/>
      <point x="398" y="700" type="line"/>
      <point x="398" y="574" type="line"/>
      <point x="160" y="573" type="line"/>
      <point x="148" y="442" type="line"/>
      <point x="161" y="445"/>
      <point x="176" y="447"/>
      <point x="193" y="447" type="curve"/>
      <point x="193" y="324" type="line"/>
      <point x="159" y="321"/>
      <point x="137" y="301"/>
      <point x="125" y="286" type="curve"/>
    </contour>
    <contour>
      <point x="17" y="107" type="curve"/>
      <point x="120" y="175" type="line"/>
      <point x="136" y="144"/>
      <point x="166" y="131"/>
      <point x="193" y="126" type="curve"/>
      <point x="193" y="0" type="line"/>
      <point x="109" y="0"/>
      <point x="49" y="46"/>
    </contour>
    <contour>
      <point x="247" y="0" type="curve"/>
      <point x="247" y="126" type="line"/>
      <point x="296" y="135"/>
      <point x="327" y="174"/>
      <point x="327" y="224" type="curve" smooth="yes"/>
      <point x="327" y="280"/>
      <point x="285" y="319"/>
      <point x="247" y="324" type="curve"/>
      <point x="247" y="447" type="line"/>
      <point x="390" y="444"/>
      <point x="455" y="333"/>
      <point x="455" y="223" type="curve" smooth="yes"/>
      <point x="455" y="82"/>
      <point x="352" y="2"/>
    </contour>
  </outline>
</glyph>
<glyph name="uni0036" format="1">
  <advance width="510"/>
  <unicode hex="0036"/>
  <outline>
    <contour>
      <point x="35" y="358" type="curve" smooth="yes"/>
      <point x="35" y="475"/>
      <point x="64" y="675"/>
      <point x="237" y="697" type="curve"/>
      <point x="237" y="572" type="line"/>
      <point x="174" y="565"/>
      <point x="159" y="448"/>
      <point x="159" y="399" type="curve"/>
      <point x="178" y="414"/>
      <point x="207" y="425"/>
      <point x="237" y="425" type="curve"/>
      <point x="237" y="307" type="line"/>
      <point x="236" y="307" type="line" smooth="yes"/>
      <point x="216" y="302"/>
      <point x="169" y="286"/>
      <point x="169" y="209" type="curve" smooth="yes"/>
      <point x="169" y="170"/>
      <point x="199" y="128"/>
      <point x="237" y="124" type="curve"/>
      <point x="237" y="-1" type="line"/>
      <point x="62" y="-1"/>
      <point x="35" y="186"/>
    </contour>
    <contour>
      <point x="291" y="-1" type="curve"/>
      <point x="291" y="123" type="line"/>
      <point x="326" y="127"/>
      <point x="365" y="159"/>
      <point x="365" y="208" type="curve" smooth="yes"/>
      <point x="365" y="290"/>
      <point x="311" y="304"/>
      <point x="292" y="309" type="curve"/>
      <point x="291" y="425" type="line"/>
      <point x="415" y="425"/>
      <point x="480" y="327"/>
      <point x="480" y="209" type="curve" smooth="yes"/>
      <point x="480" y="84"/>
      <point x="392" y="0"/>
    </contour>
    <contour>
      <point x="291" y="573" type="curve"/>
      <point x="291" y="698" type="line"/>
      <point x="369" y="698"/>
      <point x="424" y="659"/>
      <point x="459" y="600" type="curve"/>
      <point x="364" y="537" type="line"/>
      <point x="348" y="559"/>
      <point x="330" y="573"/>
      <point x="302" y="573" type="curve" smooth="yes"/>
      <point x="298" y="573"/>
      <point x="295" y="573"/>
    </contour>
  </outline>
</glyph>
<glyph name="uni003F" format="1">
  <advance width="460"/>
  <unicode hex="003F"/>
  <outline>
    <contour>
      <point x="30" y="611" type="line"/>
      <point x="60" y="649"/>
      <point x="110" y="703"/>
      <point x="218" y="703" type="curve" smooth="yes"/>
      <point x="346" y="703"/>
      <point x="426" y="620"/>
      <point x="430" y="491" type="curve"/>
      <point x="430" y="294.686"/>
      <point x="263" y="276"/>
      <point x="263" y="276" type="curve"/>
      <point x="263" y="166" type="line"/>
      <point x="134" y="166" type="line"/>
      <point x="134" y="386" type="line"/>
      <point x="251" y="388"/>
      <point x="302" y="400"/>
      <point x="302" y="493" type="curve" smooth="yes"/>
      <point x="302" y="545"/>
      <point x="257" y="575"/>
      <point x="210" y="575" type="curve" smooth="yes"/>
      <point x="167" y="575"/>
      <point x="133" y="554"/>
      <point x="112" y="526" type="curve"/>
    </contour>
    <contour>
      <point x="122" y="53" type="curve" smooth="yes"/>
      <point x="122" y="95"/>
      <point x="155" y="129"/>
      <point x="197" y="129" type="curve" smooth="yes"/>
      <point x="239" y="129"/>
      <point x="273" y="95"/>
      <point x="273" y="53" type="curve" smooth="yes"/>
      <point x="273" y="11"/>
      <point x="239" y="-22"/>
      <point x="197" y="-22" type="curve" smooth="yes"/>
      <point x="155" y="-22"/>
      <point x="122" y="11"/>
    </contour>
  </outline>
</glyph>
<glyph name="uni0041" format="1">
  <advance width="528"/>
  <unicode hex="0041"/>
  <outline>
    <contour>
      <point x="32" y="0" type="line"/>
      <point x="161" y="582" type="line"/>
      <point x="176" y="582" type="line"/>
      <point x="236" y="302" type="line"/>
      <point x="170" y="0" type="line"/>
    </contour>
    <contour>
      <point x="245" y="85" type="line"/>
      <point x="275" y="223" type="line"/>
      <point x="311" y="223" type="line"/>
      <point x="206" y="699" type="line"/>
      <point x="345" y="699" type="line"/>
      <point x="496" y="0" type="line"/>
      <point x="359" y="0" type="line"/>
      <point x="339" y="85" type="line"/>
    </contour>
  </outline>
</glyph>
<glyph name="uni0042" format="1">
  <advance width="496"/>
  <unicode hex="0042"/>
  <outline>
    <contour>
      <point x="42" y="0" type="line"/>
      <point x="42" y="700" type="line"/>
      <point x="183" y="700" type="line"/>
      <point x="183" y="0" type="line"/>
    </contour>
    <contour>
      <point x="237" y="0" type="curve"/>
      <point x="237" y="122" type="line"/>
      <point x="324" y="122"/>
      <point x="340" y="179"/>
      <point x="340" y="205" type="curve" smooth="yes"/>
      <point x="340" y="227"/>
      <point x="327" y="289"/>
      <point x="237" y="289" type="curve"/>
      <point x="237" y="411" type="line"/>
      <point x="297" y="411"/>
      <point x="338" y="446"/>
      <point x="338" y="497" type="curve" smooth="yes"/>
      <point x="338" y="547"/>
      <point x="296" y="576"/>
      <point x="237" y="577" type="curve"/>
      <point x="237" y="700" type="line"/>
      <point x="245" y="701"/>
      <point x="253" y="701"/>
      <point x="261" y="701" type="curve" smooth="yes"/>
      <point x="413" y="701"/>
      <point x="470" y="574"/>
      <point x="470" y="514" type="curve" smooth="yes"/>
      <point x="470" y="513" type="line" smooth="yes"/>
      <point x="469" y="421"/>
      <point x="436" y="378"/>
      <point x="401" y="352" type="curve"/>
      <point x="439" y="322"/>
      <point x="474" y="285"/>
      <point x="474" y="201" type="curve" smooth="yes"/>
      <point x="474" y="199"/>
      <point x="474" y="198"/>
      <point x="474" y="197" type="curve" smooth="yes"/>
      <point x="473" y="86"/>
      <point x="382" y="-2"/>
      <point x="265" y="-2" type="curve" smooth="yes"/>
      <point x="256" y="-2"/>
      <point x="246" y="-1"/>
    </contour>
  </outline>
</glyph>
<glyph name="uni0043" format="1">
  <advance width="494"/>
  <unicode hex="0043"/>
  <outline>
    <contour>
      <point x="38" y="181" type="curve"/>
      <point x="38" y="518" type="line"/>
      <point x="38" y="578"/>
      <point x="92" y="705"/>
      <point x="235" y="705" type="curve"/>
      <point x="235" y="564" type="line"/>
      <point x="189" y="563"/>
      <point x="179" y="523"/>
      <point x="179" y="518" type="curve"/>
      <point x="179" y="181" type="line"/>
      <point x="179" y="176"/>
      <point x="189" y="136"/>
      <point x="235" y="136" type="curve"/>
      <point x="235" y="-5" type="line"/>
      <point x="92" y="-5"/>
      <point x="38" y="121"/>
    </contour>
    <contour>
      <point x="289" y="-5" type="curve"/>
      <point x="289" y="136" type="line"/>
      <point x="289" y="136"/>
      <point x="321" y="143"/>
      <point x="331" y="166" type="curve" smooth="yes"/>
      <point x="336" y="178"/>
      <point x="336" y="189"/>
      <point x="336" y="203" type="curve" smooth="yes"/>
      <point x="336" y="215" type="line"/>
      <point x="474" y="182" type="line"/>
      <point x="474" y="76"/>
      <point x="381" y="-5"/>
    </contour>
    <contour>
      <point x="289" y="564" type="curve"/>
      <point x="289" y="705" type="line"/>
      <point x="381" y="705"/>
      <point x="474" y="612"/>
      <point x="474" y="516" type="curve"/>
      <point x="336" y="480" type="line"/>
      <point x="336" y="495" type="line" smooth="yes"/>
      <point x="336" y="509"/>
      <point x="336" y="520"/>
      <point x="331" y="532" type="curve" smooth="yes"/>
      <point x="321" y="555"/>
      <point x="289" y="564"/>
    </contour>
  </outline>
</glyph>
<glyph name="uni0044" format="1">
  <advance width="472"/>
  <unicode hex="0044"/>
  <outline>
    <contour>
      <point x="42" y="0" type="line"/>
      <point x="42" y="700" type="line"/>
      <point x="183" y="700" type="line"/>
      <point x="183" y="0" type="line"/>
    </contour>
    <contour>
      <point x="237" y="0" type="curve"/>
      <point x="237" y="141" type="line"/>
      <point x="243" y="141"/>
      <point x="292" y="149"/>
      <point x="293" y="197" type="curve" smooth="yes"/>
      <point x="293" y="503" type="line"/>
      <point x="293" y="508"/>
      <point x="285" y="558"/>
      <point x="237" y="559" type="curve"/>
      <point x="237" y="700" type="line"/>
      <point x="380" y="700"/>
      <point x="434" y="566"/>
      <point x="434" y="503" type="curve"/>
      <point x="434" y="197" type="line"/>
      <point x="434" y="50"/>
      <point x="297" y="0"/>
    </contour>
  </outline>
</glyph>
<glyph name="uni0047" format="1">
  <advance width="507"/>
  <unicode hex="0047"/>
  <outline>
    <contour>
      <point x="38" y="192" type="curve"/>
      <point x="38" y="524" type="line"/>
      <point x="46" y="589"/>
      <point x="102" y="705"/>
      <point x="234" y="705" type="curve"/>
      <point x="234" y="564" type="line"/>
      <point x="188" y="563"/>
      <point x="179" y="513"/>
      <point x="179" y="508" type="curve"/>
      <point x="179" y="192" type="line" smooth="yes"/>
      <point x="180" y="146"/>
      <point x="229" y="136"/>
      <point x="234" y="136" type="curve"/>
      <point x="234" y="-5" type="line"/>
      <point x="174" y="-5"/>
      <point x="38" y="48"/>
    </contour>
    <contour>
      <point x="288" y="-5" type="curve"/>
      <point x="288" y="136" type="line"/>
      <point x="294" y="136"/>
      <point x="331" y="155"/>
      <point x="331" y="190" type="curve" smooth="yes"/>
      <point x="331" y="223" type="line"/>
      <point x="288" y="223" type="line"/>
      <point x="288" y="353" type="line"/>
      <point x="473" y="353" type="line"/>
      <point x="473" y="176" type="line" smooth="yes"/>
      <point x="473" y="95"/>
      <point x="370" y="-4"/>
    </contour>
    <contour>
      <point x="288" y="564" type="curve"/>
      <point x="288" y="705" type="line"/>
      <point x="381" y="705"/>
      <point x="473" y="612"/>
      <point x="473" y="516" type="curve"/>
      <point x="335" y="465" type="line"/>
      <point x="335" y="495" type="line" smooth="yes"/>
      <point x="335" y="509"/>
      <point x="335" y="520"/>
      <point x="330" y="532" type="curve" smooth="yes"/>
      <point x="320" y="555"/>
      <point x="288" y="564"/>
    </contour>
  </outline>
</glyph>
<glyph name="uni0048" format="1">
  <advance width="478"/>
  <unicode hex="0048"/>
  <outline>
    <contour>
      <point x="42" y="0" type="line"/>
      <point x="42" y="700" type="line"/>
      <point x="183" y="700" type="line"/>
      <point x="183" y="421" type="line"/>
      <point x="212" y="421" type="line"/>
      <point x="212" y="283" type="line"/>
      <point x="183" y="283" type="line"/>
      <point x="183" y="0" type="line"/>
    </contour>
    <contour>
      <point x="266" y="283" type="line"/>
      <point x="266" y="421" type="line"/>
      <point x="295" y="421" type="line"/>
      <point x="295" y="700" type="line"/>
      <point x="436" y="700" type="line"/>
      <point x="436" y="0" type="line"/>
      <point x="295" y="0" type="line"/>
      <point x="295" y="283" type="line"/>
    </contour>
  </outline>
</glyph>
<glyph name="uni004A" format="1">
  <advance width="484"/>
  <unicode hex="004A"/>
  <outline>
    <contour>
      <point x="15" y="193" type="curve"/>
      <point x="15" y="242" type="line"/>
      <point x="156" y="242" type="line"/>
      <point x="156" y="193" type="line" smooth="yes"/>
      <point x="157" y="147"/>
      <point x="197" y="137"/>
      <point x="202" y="137" type="curve"/>
      <point x="202" y="-5" type="line"/>
      <point x="142" y="-5"/>
      <point x="15" y="54"/>
    </contour>
    <contour>
      <point x="256" y="-5" type="curve"/>
      <point x="256" y="137" type="line"/>
      <point x="261" y="137"/>
      <point x="311" y="147"/>
      <point x="312" y="193" type="curve" smooth="yes"/>
      <point x="312" y="700" type="line"/>
      <point x="452" y="700" type="line"/>
      <point x="452" y="193" type="line"/>
      <point x="452" y="49"/>
      <point x="316" y="-5"/>
    </contour>
  </outline>
</glyph>
<glyph name="uni004B" format="1">
  <advance width="488"/>
  <unicode hex="004B"/>
  <outline>
    <contour>
      <point x="42" y="0" type="line"/>
      <point x="42" y="700" type="line"/>
      <point x="183" y="700" type="line"/>
      <point x="183" y="0" type="line"/>
    </contour>
    <contour>
      <point x="223" y="341" type="line"/>
      <point x="330" y="700" type="line"/>
      <point x="469" y="700" type="line"/>
      <point x="363" y="341" type="line"/>
      <point x="473" y="0" type="line"/>
      <point x="335" y="0" type="line"/>
    </contour>
  </outline>
</glyph>
<glyph name="uni004C" format="1">
  <advance width="433"/>
  <unicode hex="004C"/>
  <outline>
    <contour>
      <point x="42" y="0" type="line"/>
      <point x="42" y="700" type="line"/>
      <point x="183" y="700" type="line"/>
      <point x="183" y="139" type="line"/>
      <point x="418" y="139" type="line"/>
      <point x="418" y="0" type="line"/>
    </contour>
  </outline>
</glyph>
<glyph name="uni004D" format="1">
  <advance width="696"/>
  <unicode hex="004D"/>
  <outline>
    <contour>
      <point x="42" y="0" type="line"/>
      <point x="42" y="444" type="line"/>
      <point x="51" y="444" type="line"/>
      <point x="183" y="127" type="line"/>
      <point x="183" y="0" type="line"/>
    </contour>
    <contour>
      <point x="42" y="608" type="line"/>
      <point x="42" y="700" type="line"/>
      <point x="152" y="700" type="line"/>
      <point x="343" y="237" type="line"/>
      <point x="449" y="476" type="line"/>
      <point x="459" y="476" type="line"/>
      <point x="459" y="151" type="line"/>
      <point x="392" y="0" type="line"/>
      <point x="295" y="0" type="line"/>
    </contour>
    <contour>
      <point x="513" y="0" type="line"/>
      <point x="513" y="700" type="line"/>
      <point x="654" y="700" type="line"/>
      <point x="654" y="0" type="line"/>
    </contour>
  </outline>
</glyph>
<glyph name="uni004E" format="1">
  <advance width="529"/>
  <unicode hex="004E"/>
  <outline>
    <contour>
      <point x="42" y="0" type="line"/>
      <point x="42" y="492" type="line"/>
      <point x="50" y="492" type="line"/>
      <point x="183" y="278" type="line"/>
      <point x="183" y="0" type="line"/>
    </contour>
    <contour>
      <point x="42" y="608" type="line"/>
      <point x="42" y="700" type="line"/>
      <point x="157" y="700" type="line"/>
      <point x="487" y="168" type="line"/>
      <point x="487" y="0" type="line"/>
      <point x="420" y="0" type="line"/>
    </contour>
    <contour>
      <point x="346" y="498" type="line"/>
      <point x="346" y="700" type="line"/>
      <point x="487" y="700" type="line"/>
      <point x="487" y="284" type="line"/>
      <point x="479" y="284" type="line"/>
    </contour>
  </outline>
</glyph>
<glyph name="uni004F" format="1">
  <advance width="524"/>
  <unicode hex="004F"/>
  <outline>
    <contour>
      <point x="38" y="195" type="curve" smooth="yes"/>
      <point x="38" y="524" type="line" smooth="yes"/>
      <point x="38" y="584"/>
      <point x="103" y="705"/>
      <point x="235" y="705" type="curve"/>
      <point x="235" y="564" type="line"/>
      <point x="189" y="563"/>
      <point x="179" y="513"/>
      <point x="179" y="508" type="curve" smooth="yes"/>
      <point x="179" y="195" type="line" smooth="yes"/>
      <point x="179" y="149"/>
      <point x="229" y="137"/>
      <point x="234" y="137" type="curve"/>
      <point x="234" y="-5" type="line"/>
      <point x="174" y="-5"/>
      <point x="38" y="51"/>
    </contour>
    <contour>
      <point x="289" y="-5" type="curve"/>
      <point x="289" y="137" type="line"/>
      <point x="294" y="137"/>
      <point x="344" y="149"/>
      <point x="345" y="195" type="curve" smooth="yes"/>
      <point x="345" y="508" type="line" smooth="yes"/>
      <point x="345" y="513"/>
      <point x="335" y="563"/>
      <point x="289" y="564" type="curve"/>
      <point x="289" y="705" type="line"/>
      <point x="420" y="705"/>
      <point x="486" y="583"/>
      <point x="486" y="524" type="curve" smooth="yes"/>
      <point x="486" y="195" type="line" smooth="yes"/>
      <point x="486" y="51"/>
      <point x="349" y="-5"/>
    </contour>
  </outline>
</glyph>
<glyph name="uni0050" format="1">
  <advance width="479"/>
  <unicode hex="0050"/>
  <outline>
    <contour>
      <point x="42" y="0" type="line"/>
      <point x="42" y="700" type="line"/>
      <point x="183" y="700" type="line"/>
      <point x="183" y="0" type="line"/>
    </contour>
    <contour>
      <point x="237" y="318" type="curve"/>
      <point x="237" y="457" type="line"/>
      <point x="270" y="457" type="line" smooth="yes"/>
      <point x="277" y="457"/>
      <point x="321" y="458"/>
      <point x="321" y="508" type="curve" smooth="yes"/>
      <point x="321" y="559"/>
      <point x="279" y="561"/>
      <point x="270" y="561" type="curve" smooth="yes"/>
      <point x="237" y="561" type="line"/>
      <point x="237" y="700" type="line"/>
      <point x="418" y="700"/>
      <point x="464" y="626"/>
      <point x="464" y="512" type="curve" smooth="yes"/>
      <point x="464" y="369"/>
      <point x="394" y="318"/>
    </contour>
  </outline>
</glyph>
<glyph name="uni0052" format="1">
  <advance width="505"/>
  <unicode hex="0052"/>
  <outline>
    <contour>
      <point x="42" y="0" type="line"/>
      <point x="42" y="700" type="line"/>
      <point x="183" y="700" type="line"/>
      <point x="183" y="0" type="line"/>
    </contour>
    <contour>
      <point x="237" y="286" type="curve"/>
      <point x="237" y="411" type="line"/>
      <point x="250" y="411" type="line" smooth="yes"/>
      <point x="310" y="411"/>
      <point x="336" y="447"/>
      <point x="336" y="488" type="curve" smooth="yes"/>
      <point x="336" y="536"/>
      <point x="299" y="567"/>
      <point x="250" y="567" type="curve" smooth="yes"/>
      <point x="237" y="567" type="line"/>
      <point x="237" y="700" type="line"/>
      <point x="387" y="700"/>
      <point x="463" y="616"/>
      <point x="463" y="496" type="curve" smooth="yes"/>
      <point x="463" y="428"/>
      <point x="442" y="381"/>
      <point x="396" y="352" type="curve"/>
      <point x="432" y="325"/>
      <point x="458" y="266"/>
      <point x="462" y="217" type="curve" smooth="yes"/>
      <point x="479" y="0" type="line"/>
      <point x="353" y="0" type="line"/>
      <point x="338" y="178" type="line" smooth="yes"/>
      <point x="331" y="257"/>
      <point x="308" y="285"/>
    </contour>
  </outline>
</glyph>
<glyph name="uni0053" format="1">
  <advance width="481"/>
  <unicode hex="0053"/>
  <outline>
    <contour>
      <point x="20" y="158" type="curve"/>
      <point x="147" y="203" type="line"/>
      <point x="149" y="147"/>
      <point x="203" y="127"/>
      <point x="203" y="127" type="curve"/>
      <point x="203" y="-3" type="line"/>
      <point x="94" y="-3"/>
      <point x="21" y="103"/>
    </contour>
    <contour>
      <point x="28" y="508" type="curve" smooth="yes"/>
      <point x="28" y="647"/>
      <point x="152" y="699"/>
      <point x="203" y="700" type="curve"/>
      <point x="203" y="568" type="line"/>
      <point x="182" y="562"/>
      <point x="162" y="537"/>
      <point x="162" y="513" type="curve" smooth="yes"/>
      <point x="162" y="446"/>
      <point x="266" y="434"/>
      <point x="333" y="394" type="curve" smooth="yes"/>
      <point x="394" y="358"/>
      <point x="461" y="311"/>
      <point x="461" y="209" type="curve" smooth="yes"/>
      <point x="461" y="96"/>
      <point x="366" y="-3"/>
      <point x="258" y="-3" type="curve"/>
      <point x="258" y="127" type="line"/>
      <point x="282" y="130"/>
      <point x="320" y="150"/>
      <point x="320" y="203" type="curve" smooth="yes"/>
      <point x="320" y="278"/>
      <point x="211" y="294"/>
      <point x="151" y="323" type="curve" smooth="yes"/>
      <point x="80" y="357"/>
      <point x="28" y="403"/>
    </contour>
    <contour>
      <point x="258" y="568" type="curve"/>
      <point x="258" y="700" type="line"/>
      <point x="364" y="700"/>
      <point x="427" y="589"/>
      <point x="433" y="553" type="curve"/>
      <point x="303" y="510" type="line"/>
      <point x="298" y="557"/>
      <point x="258" y="568"/>
    </contour>
  </outline>
</glyph>
<glyph name="uni0054" format="1">
  <advance width="463"/>
  <unicode hex="0054"/>
  <outline>
    <contour>
      <point x="15" y="562" type="line"/>
      <point x="15" y="700" type="line"/>
      <point x="448" y="700" type="line"/>
      <point x="448" y="562" type="line"/>
      <point x="302" y="562" type="line"/>
      <point x="302" y="0" type="line"/>
      <point x="161" y="0" type="line"/>
      <point x="161" y="562" type="line"/>
    </contour>
  </outline>
</glyph>
<glyph name="uni0056" format="1">
  <advance width="472"/>
  <unicode hex="0056"/>
  <outline>
    <contour>
      <point x="8" y="700" type="line"/>
      <point x="152" y="700" type="line"/>
      <point x="311" y="158" type="line"/>
      <point x="258" y="0" type="line"/>
      <point x="211" y="0" type="line"/>
    </contour>
    <contour>
      <point x="265" y="514" type="line"/>
      <point x="320" y="700" type="line"/>
      <point x="464" y="700" type="line"/>
      <point x="424" y="569"/>
      <point x="383" y="430"/>
      <point x="341" y="290" type="curve"/>
      <point x="331" y="290" type="line"/>
    </contour>
  </outline>
</glyph>
<glyph name="uni0057" format="1">
  <advance width="689"/>
  <unicode hex="0057"/>
  <outline>
    <contour>
      <point x="8" y="700" type="line"/>
      <point x="152" y="700" type="line"/>
      <point x="310" y="158" type="line"/>
      <point x="258" y="0" type="line"/>
      <point x="211" y="0" type="line"/>
    </contour>
    <contour>
      <point x="221" y="700" type="line"/>
      <point x="365" y="700" type="line"/>
      <point x="523" y="158" type="line"/>
      <point x="471" y="0" type="line"/>
      <point x="424" y="0" type="line"/>
    </contour>
    <contour>
      <point x="482" y="514" type="line"/>
      <point x="537" y="700" type="line"/>
      <point x="681" y="700" type="line"/>
      <point x="558" y="290" type="line"/>
      <point x="548" y="290" type="line"/>
    </contour>
  </outline>
</glyph>
<glyph name="uni0058" format="1">
  <advance width="442"/>
  <unicode hex="0058"/>
  <outline>
    <contour>
      <point x="15" y="0" type="line"/>
      <point x="151" y="361" type="line"/>
      <point x="27" y="700" type="line"/>
      <point x="164" y="700" type="line"/>
      <point x="221" y="548" type="line"/>
      <point x="278" y="700" type="line"/>
      <point x="415" y="700" type="line"/>
      <point x="291" y="361" type="line"/>
      <point x="427" y="0" type="line"/>
      <point x="282" y="0" type="line"/>
      <point x="221" y="167" type="line"/>
      <point x="160" y="0" type="line"/>
    </contour>
  </outline>
</glyph>
<glyph name="uni0059" format="1">
  <advance width="451"/>
  <unicode hex="0059"/>
  <outline>
    <contour>
      <point x="12" y="700" type="line"/>
      <point x="159" y="700" type="line"/>
      <point x="289" y="253" type="line"/>
      <point x="289" y="0" type="line"/>
      <point x="143" y="0" type="line"/>
      <point x="143" y="252" type="line"/>
    </contour>
    <contour>
      <point x="255" y="565" type="line"/>
      <point x="294" y="700" type="line"/>
      <point x="439" y="700" type="line"/>
      <point x="330" y="331" type="line"/>
      <point x="321" y="331" type="line"/>
    </contour>
  </outline>
</glyph>
<glyph name="uni005A" format="1">
  <advance width="426"/>
  <unicode hex="005A"/>
  <outline>
    <contour>
      <point x="30" y="0" type="line"/>
      <point x="30" y="141" type="line"/>
      <point x="240" y="560" type="line"/>
      <point x="30" y="560" type="line"/>
      <point x="30" y="700" type="line"/>
      <point x="396" y="700" type="line"/>
      <point x="396" y="563" type="line"/>
      <point x="186" y="144" type="line"/>
      <point x="396" y="144" type="line"/>
      <point x="396" y="0" type="line"/>
    </contour>
  </outline>
</glyph>
<glyph name="uni005B" format="1">
  <advance width="258"/>
  <unicode hex="005B"/>
  <outline>
    <contour>
      <point x="50" y="-36" type="line"/>
      <point x="50" y="739" type="line"/>
      <point x="244" y="739" type="line"/>
      <point x="244" y="629" type="line"/>
      <point x="183" y="629" type="line"/>
      <point x="180" y="74" type="line"/>
      <point x="244" y="74" type="line"/>
      <point x="244" y="-36" type="line"/>
    </contour>
  </outline>
</glyph>
<glyph name="uni005C" format="1">
  <advance width="385"/>
  <unicode hex="005C"/>
  <outline>
    <contour>
      <point x="42" y="716" type="line"/>
      <point x="168" y="716" type="line"/>
      <point x="343" y="-23" type="line"/>
      <point x="216" y="-23" type="line"/>
    </contour>
  </outline>
</glyph>
<glyph name="uni005D" format="1">
  <advance width="258"/>
  <unicode hex="005D"/>
  <outline>
    <contour>
      <point x="14" y="-36" type="line"/>
      <point x="14" y="74" type="line"/>
      <point x="78" y="74" type="line"/>
      <point x="75" y="629" type="line"/>
      <point x="14" y="629" type="line"/>
      <point x="14" y="739" type="line"/>
      <point x="208" y="739" type="line"/>
      <point x="208" y="-36" type="line"/>
    </contour>
  </outline>
</glyph>
<glyph name="uni005E" format="1">
  <advance width="506"/>
  <unicode hex="005E"/>
  <outline>
    <contour>
      <point x="60" y="460" type="line"/>
      <point x="209" y="756" type="line"/>
      <point x="297" y="756" type="line"/>
      <point x="446" y="460" type="line"/>
      <point x="323" y="460" type="line"/>
      <point x="252" y="603" type="line"/>
      <point x="182" y="460" type="line"/>
    </contour>
  </outline>
</glyph>
<glyph name="uni0060" format="1">
  <advance width="346"/>
  <unicode hex="0060"/>
  <outline>
    <contour>
      <point x="42" y="757" type="line"/>
      <point x="169" y="757" type="line"/>
      <point x="206" y="605" type="line"/>
      <point x="115" y="605" type="line"/>
    </contour>
  </outline>
</glyph>
<glyph name="uni0061" format="1">
  <advance width="472"/>
  <unicode hex="0061"/>
  <outline>
    <contour>
      <point x="24.5996" y="132.89" type="curve" smooth="yes"/>
      <point x="24.5996" y="183.49" type="line" smooth="yes"/>
      <point x="24.5996" y="219.79"/>
      <point x="32.2998" y="256.09"/>
      <point x="78.5" y="282.49" type="curve" smooth="yes"/>
      <point x="125.8" y="309.99"/>
      <point x="290.8" y="341.89"/>
      <point x="290.8" y="385.89" type="curve" smooth="yes"/>
      <point x="290.8" y="390.29"/>
      <point x="290.8" y="394.69"/>
      <point x="290.8" y="399.09" type="curve" smooth="yes"/>
      <point x="290.8" y="425.49"/>
      <point x="288.6" y="444.19"/>
      <point x="250.1" y="447.49" type="curve" smooth="yes"/>
      <point x="246.8" y="448.59" type="line"/>
      <point x="246.8" y="570.69" type="line"/>
      <point x="250.1" y="570.69" type="line" smooth="yes"/>
      <point x="363.399" y="570.69"/>
      <point x="418.399" y="466.19"/>
      <point x="418.399" y="417.79" type="curve" smooth="yes"/>
      <point x="418.399" y="157.09" type="line" smooth="yes"/>
      <point x="418.399" y="151.59"/>
      <point x="420.6" y="125.19"/>
      <point x="443.7" y="125.19" type="curve" smooth="yes"/>
      <point x="447" y="125.19" type="line"/>
      <point x="447" y="0.889648" type="line"/>
      <point x="443.7" y="0.889648" type="line" smooth="yes"/>
      <point x="403" y="0.889648"/>
      <point x="371.1" y="14.0898"/>
      <point x="349.1" y="32.79" type="curve"/>
      <point x="323.8" y="12.9902"/>
      <point x="290.8" y="0.889648"/>
      <point x="251.2" y="0.889648" type="curve" smooth="yes"/>
      <point x="247.899" y="0.889648" type="line"/>
      <point x="247.899" y="124.09" type="line"/>
      <point x="251.2" y="124.09" type="line" smooth="yes"/>
      <point x="284.2" y="125.19"/>
      <point x="290.8" y="160.39"/>
      <point x="290.8" y="163.69" type="curve" smooth="yes"/>
      <point x="290.8" y="249.49" type="line"/>
      <point x="249" y="225.29"/>
      <point x="164.3" y="208.79"/>
      <point x="148.899" y="201.09" type="curve" smooth="yes"/>
      <point x="142.3" y="197.79"/>
      <point x="135.7" y="190.09"/>
      <point x="135.7" y="177.99" type="curve" smooth="yes"/>
      <point x="135.7" y="163.69" type="line" smooth="yes"/>
      <point x="135.7" y="141.69"/>
      <point x="146.7" y="124.09"/>
      <point x="175.3" y="124.09" type="curve" smooth="yes"/>
      <point x="194" y="124.09" type="line"/>
      <point x="194" y="0.889648" type="line"/>
      <point x="87.2998" y="0.889648"/>
      <point x="24.5996" y="70.1904"/>
    </contour>
    <contour>
      <point x="32.2998" y="427.69" type="line"/>
      <point x="32.2998" y="429.89" type="line" smooth="yes"/>
      <point x="32.2998" y="507.99"/>
      <point x="117" y="570.69"/>
      <point x="191.8" y="570.69" type="curve" smooth="yes"/>
      <point x="195.1" y="570.69" type="line"/>
      <point x="195.1" y="447.49" type="line"/>
      <point x="191.8" y="447.49" type="line" smooth="yes"/>
      <point x="166.5" y="445.29"/>
      <point x="147.8" y="428.79"/>
      <point x="147.8" y="388.09" type="curve" smooth="yes"/>
      <point x="147.8" y="383.69" type="line"/>
    </contour>
  </outline>
</glyph>
<glyph name="uni0062" format="1">
  <advance width="466"/>
  <unicode hex="0062"/>
  <outline>
    <contour>
      <point x="42.1992" y="-9.16016" type="line"/>
      <point x="42.1992" y="759.74" type="line"/>
      <point x="179.699" y="759.74" type="line"/>
      <point x="179.699" y="-9.16016" type="line"/>
    </contour>
    <contour>
      <point x="232.5" y="-9.16016" type="line"/>
      <point x="232.5" y="120.64" type="line"/>
      <point x="268.8" y="120.64" type="line" smooth="yes"/>
      <point x="299.6" y="120.64"/>
      <point x="306.199" y="147.04"/>
      <point x="306.199" y="148.14" type="curve"/>
      <point x="306.199" y="401.14" type="line"/>
      <point x="306.199" y="403.34"/>
      <point x="299.6" y="427.54"/>
      <point x="269.899" y="428.64" type="curve" smooth="yes"/>
      <point x="232.5" y="428.64" type="line"/>
      <point x="232.5" y="558.44" type="line"/>
      <point x="268.8" y="558.44" type="line" smooth="yes"/>
      <point x="381" y="558.44"/>
      <point x="434.899" y="455.04"/>
      <point x="436" y="405.54" type="curve"/>
      <point x="436" y="145.94" type="line" smooth="yes"/>
      <point x="436" y="97.54"/>
      <point x="382.1" y="-9.16016"/>
      <point x="268.8" y="-9.16016" type="curve" smooth="yes"/>
    </contour>
  </outline>
</glyph>
<glyph name="uni0063" format="1">
  <advance width="456"/>
  <unicode hex="0063"/>
  <outline>
    <contour>
      <point x="37.8008" y="155.14" type="curve" smooth="yes"/>
      <point x="37.8008" y="414.74" type="line"/>
      <point x="38.9004" y="463.14"/>
      <point x="92.8008" y="567.64"/>
      <point x="208.301" y="567.64" type="curve" smooth="yes"/>
      <point x="214.9" y="567.64" type="line"/>
      <point x="214.9" y="440.04" type="line"/>
      <point x="178.811" y="440.04"/>
      <point x="168.7" y="418.635"/>
      <point x="168.7" y="412.54" type="curve" smooth="yes"/>
      <point x="168.7" y="155.14" type="line" smooth="yes"/>
      <point x="168.7" y="152.94"/>
      <point x="174.2" y="126.54"/>
      <point x="218.2" y="126.54" type="curve" smooth="yes"/>
      <point x="223.7" y="125.44" type="line"/>
      <point x="223.7" y="0.0400391" type="line"/>
      <point x="218.2" y="0.0400391" type="line" smooth="yes"/>
      <point x="91.7002" y="0.0400391"/>
      <point x="37.8008" y="106.74"/>
    </contour>
    <contour>
      <point x="261.101" y="438.94" type="line"/>
      <point x="261.101" y="567.64" type="line"/>
      <point x="267.7" y="567.64" type="line" smooth="yes"/>
      <point x="348" y="567.64"/>
      <point x="423.9" y="492.84"/>
      <point x="423.9" y="413.64" type="curve" smooth="yes"/>
      <point x="423.9" y="409.24" type="line"/>
      <point x="301.801" y="363.04" type="line"/>
      <point x="301.801" y="396.04" type="line" smooth="yes"/>
      <point x="301.801" y="407.04"/>
      <point x="301.801" y="412.54"/>
      <point x="297.4" y="421.34" type="curve"/>
      <point x="291.9" y="436.74"/>
      <point x="267.7" y="438.94"/>
      <point x="267.7" y="438.94" type="curve" smooth="yes"/>
      <point x="266.601" y="438.94"/>
      <point x="265.5" y="438.94"/>
      <point x="264.4" y="438.94" type="curve" smooth="yes"/>
    </contour>
    <contour>
      <point x="272.101" y="-1.05957" type="line"/>
      <point x="272.101" y="127.64" type="line"/>
      <point x="278.7" y="127.64" type="line"/>
      <point x="280.9" y="127.64"/>
      <point x="304" y="130.94"/>
      <point x="309.5" y="145.24" type="curve"/>
      <point x="313.9" y="154.04"/>
      <point x="313.9" y="160.64"/>
      <point x="313.9" y="171.64" type="curve" smooth="yes"/>
      <point x="313.9" y="204.64" type="line"/>
      <point x="436" y="158.44" type="line"/>
      <point x="436" y="154.04" type="line" smooth="yes"/>
      <point x="436" y="74.8398"/>
      <point x="360.101" y="-1.05957"/>
      <point x="279.801" y="-1.05957" type="curve" smooth="yes"/>
    </contour>
  </outline>
</glyph>
<glyph name="uni0064" format="1">
  <advance width="461"/>
  <unicode hex="0064"/>
  <outline>
    <contour>
      <point x="30" y="145.99" type="curve" smooth="yes"/>
      <point x="30" y="405.59" type="line"/>
      <point x="31.1006" y="455.09"/>
      <point x="83.9004" y="558.49"/>
      <point x="195" y="558.49" type="curve" smooth="yes"/>
      <point x="228" y="558.49" type="line"/>
      <point x="228" y="428.69" type="line"/>
      <point x="195" y="428.69" type="line"/>
      <point x="165.3" y="427.59"/>
      <point x="159.8" y="403.39"/>
      <point x="159.8" y="401.19" type="curve" smooth="yes"/>
      <point x="159.8" y="148.19" type="line"/>
      <point x="159.8" y="145.99"/>
      <point x="166.4" y="120.69"/>
      <point x="197.2" y="120.69" type="curve" smooth="yes"/>
      <point x="228" y="120.69" type="line"/>
      <point x="228" y="-9.11035" type="line"/>
      <point x="197.2" y="-9.11035" type="line" smooth="yes"/>
      <point x="82.7998" y="-9.11035"/>
      <point x="30" y="97.5898"/>
    </contour>
    <contour>
      <point x="280.8" y="-9.11035" type="line"/>
      <point x="280.8" y="758.69" type="line"/>
      <point x="419.4" y="758.69" type="line"/>
      <point x="419.4" y="-9.11035" type="line"/>
    </contour>
  </outline>
</glyph>
<glyph name="uni0065" format="1">
  <advance width="485"/>
  <unicode hex="0065"/>
  <outline>
    <contour>
      <point x="37.8008" y="155.09" type="curve" smooth="yes"/>
      <point x="37.8008" y="414.69" type="line"/>
      <point x="38.9004" y="464.19"/>
      <point x="97.2002" y="567.59"/>
      <point x="209.4" y="567.59" type="curve" smooth="yes"/>
      <point x="214.9" y="567.59" type="line"/>
      <point x="214.9" y="439.99" type="line"/>
      <point x="211.601" y="439.99" type="line" smooth="yes"/>
      <point x="179.7" y="439.99"/>
      <point x="172" y="417.99"/>
      <point x="172" y="405.89" type="curve" smooth="yes"/>
      <point x="172" y="356.39" type="line"/>
      <point x="320.5" y="356.39" type="line"/>
      <point x="320.5" y="405.89" type="line" smooth="yes"/>
      <point x="320.5" y="435.59"/>
      <point x="295.2" y="442.19"/>
      <point x="273.2" y="442.19" type="curve" smooth="yes"/>
      <point x="268.801" y="442.19" type="line"/>
      <point x="268.801" y="567.59" type="line"/>
      <point x="275.4" y="567.59" type="line" smooth="yes"/>
      <point x="352.4" y="567.59"/>
      <point x="445.9" y="494.99"/>
      <point x="445.9" y="415.79" type="curve" smooth="yes"/>
      <point x="445.9" y="228.79" type="line"/>
      <point x="172" y="228.79" type="line"/>
      <point x="172" y="155.09" type="line" smooth="yes"/>
      <point x="172" y="151.79"/>
      <point x="179.7" y="119.89"/>
      <point x="210.5" y="118.79" type="curve" smooth="yes"/>
      <point x="216" y="118.79" type="line"/>
      <point x="216" y="-0.00976562" type="line"/>
      <point x="210.5" y="-0.00976562" type="line" smooth="yes"/>
      <point x="96.1006" y="-0.00976562"/>
      <point x="37.8008" y="105.59"/>
    </contour>
    <contour>
      <point x="268.801" y="-0.00976562" type="line"/>
      <point x="268.801" y="122.09" type="line"/>
      <point x="275.4" y="122.09" type="line" smooth="yes"/>
      <point x="309.5" y="124.29"/>
      <point x="332.601" y="145.19"/>
      <point x="337" y="168.29" type="curve" smooth="yes"/>
      <point x="338.101" y="172.69" type="line"/>
      <point x="447" y="131.99" type="line"/>
      <point x="445.9" y="129.79" type="line" smooth="yes"/>
      <point x="429.4" y="59.3896"/>
      <point x="352.4" y="-0.00976562"/>
      <point x="275.4" y="-0.00976562" type="curve" smooth="yes"/>
    </contour>
  </outline>
</glyph>
<glyph name="uni0066" format="1">
  <advance width="321"/>
  <unicode hex="0066"/>
  <outline>
    <contour>
      <point x="15.1992" y="430.99" type="line"/>
      <point x="15.1992" y="558.59" type="line"/>
      <point x="84.5" y="558.59" type="line"/>
      <point x="84.5" y="598.19" type="line" smooth="yes"/>
      <point x="84.5" y="647.69"/>
      <point x="140.6" y="755.49"/>
      <point x="253.899" y="756.59" type="curve" smooth="yes"/>
      <point x="321" y="756.59" type="line"/>
      <point x="291.3" y="627.89" type="line"/>
      <point x="255" y="627.89" type="line"/>
      <point x="224.199" y="626.79"/>
      <point x="218.699" y="601.49"/>
      <point x="218.699" y="598.19" type="curve" smooth="yes"/>
      <point x="218.699" y="557.49" type="line"/>
      <point x="291.3" y="558.59" type="line"/>
      <point x="291.3" y="430.99" type="line"/>
      <point x="218.699" y="430.99" type="line"/>
      <point x="218.699" y="-9.00977" type="line"/>
      <point x="84.5" y="-9.00977" type="line"/>
      <point x="84.5" y="430.99" type="line"/>
    </contour>
  </outline>
</glyph>
<glyph name="uni0067" format="1">
  <advance width="456"/>
  <unicode hex="0067"/>
  <outline>
    <contour>
      <point x="20" y="-190.06" type="line"/>
      <point x="50.8008" y="-66.8604" type="line"/>
      <point x="248.801" y="-66.8604" type="line"/>
      <point x="282.9" y="-65.7598"/>
      <point x="290.601" y="-38.2598"/>
      <point x="290.601" y="-34.96" type="curve" smooth="yes"/>
      <point x="290.601" y="12.3398" type="line"/>
      <point x="277.4" y="9.04004"/>
      <point x="264.2" y="7.94043"/>
      <point x="248.801" y="7.94043" type="curve" smooth="yes"/>
      <point x="245.5" y="7.94043" type="line"/>
      <point x="245.5" y="128.94" type="line"/>
      <point x="248.801" y="128.94" type="line" smooth="yes"/>
      <point x="282.9" y="130.04"/>
      <point x="290.601" y="158.64"/>
      <point x="290.601" y="161.94" type="curve" smooth="yes"/>
      <point x="290.601" y="420.44" type="line" smooth="yes"/>
      <point x="290.601" y="423.74"/>
      <point x="282.9" y="452.34"/>
      <point x="248.801" y="452.34" type="curve" smooth="yes"/>
      <point x="245.5" y="452.34" type="line"/>
      <point x="245.5" y="576.64" type="line"/>
      <point x="248.801" y="576.64" type="line" smooth="yes"/>
      <point x="263.101" y="576.64"/>
      <point x="278.5" y="574.44"/>
      <point x="290.601" y="571.14" type="curve"/>
      <point x="290.601" y="576.64" type="line"/>
      <point x="419.301" y="576.64" type="line"/>
      <point x="419.301" y="-34.96" type="line" smooth="yes"/>
      <point x="419.301" y="-82.2598"/>
      <point x="364.301" y="-188.96"/>
      <point x="251" y="-190.06" type="curve"/>
    </contour>
    <contour>
      <point x="29.9004" y="161.94" type="curve" smooth="yes"/>
      <point x="29.9004" y="424.84" type="line"/>
      <point x="31" y="473.24"/>
      <point x="84.9004" y="576.64"/>
      <point x="199.301" y="576.64" type="curve" smooth="yes"/>
      <point x="202.601" y="576.64" type="line"/>
      <point x="202.601" y="452.34" type="line"/>
      <point x="199.301" y="452.34" type="line" smooth="yes"/>
      <point x="164.101" y="452.34"/>
      <point x="156.4" y="424.84"/>
      <point x="156.4" y="421.54" type="curve" smooth="yes"/>
      <point x="156.4" y="163.04" type="line" smooth="yes"/>
      <point x="156.4" y="159.74"/>
      <point x="165.2" y="132.24"/>
      <point x="199.301" y="132.24" type="curve" smooth="yes"/>
      <point x="202.601" y="132.24" type="line"/>
      <point x="202.601" y="7.94043" type="line"/>
      <point x="199.301" y="7.94043" type="line" smooth="yes"/>
      <point x="83.8008" y="7.94043"/>
      <point x="29.9004" y="114.64"/>
    </contour>
  </outline>
</glyph>
<glyph name="uni0068" format="1">
  <advance width="473"/>
  <unicode hex="0068"/>
  <outline>
    <contour>
      <point x="41.5" y="-8.05957" type="line"/>
      <point x="41.5" y="758.64" type="line"/>
      <point x="166.9" y="758.64" type="line"/>
      <point x="166.9" y="546.34" type="line"/>
      <point x="170.2" y="547.44" type="line" smooth="yes"/>
      <point x="183.4" y="550.74"/>
      <point x="202.1" y="552.94"/>
      <point x="217.5" y="552.94" type="curve" smooth="yes"/>
      <point x="220.8" y="552.94" type="line"/>
      <point x="220.8" y="429.74" type="line"/>
      <point x="217.5" y="429.74" type="line" smooth="yes"/>
      <point x="182.3" y="426.44"/>
      <point x="168" y="397.84"/>
      <point x="168" y="392.34" type="curve" smooth="yes"/>
      <point x="168" y="-8.05957" type="line"/>
    </contour>
    <contour>
      <point x="270.3" y="429.74" type="line"/>
      <point x="270.3" y="552.94" type="line"/>
      <point x="273.6" y="552.94" type="line" smooth="yes"/>
      <point x="380.3" y="548.54"/>
      <point x="443" y="479.24"/>
      <point x="443" y="402.24" type="curve" smooth="yes"/>
      <point x="443" y="-8.05957" type="line"/>
      <point x="317.6" y="-8.05957" type="line"/>
      <point x="317.6" y="392.34" type="line" smooth="yes"/>
      <point x="317.6" y="396.74"/>
      <point x="311" y="426.44"/>
      <point x="273.6" y="429.74" type="curve" smooth="yes"/>
    </contour>
  </outline>
</glyph>
<glyph name="uni0069" format="1">
  <advance width="245"/>
  <unicode hex="0069"/>
  <outline>
    <contour>
      <point x="42.4004" y="683.64" type="curve" smooth="yes"/>
      <point x="42.4004" y="727.64"/>
      <point x="78.7002" y="763.94"/>
      <point x="122.7" y="763.94" type="curve" smooth="yes"/>
      <point x="166.7" y="763.94"/>
      <point x="203" y="727.64"/>
      <point x="203" y="683.64" type="curve" smooth="yes"/>
      <point x="203" y="640.74"/>
      <point x="166.7" y="604.44"/>
      <point x="122.7" y="604.44" type="curve" smooth="yes"/>
      <point x="78.7002" y="604.44"/>
      <point x="42.4004" y="640.74"/>
    </contour>
    <contour>
      <point x="56.7002" y="-9.36035" type="line"/>
      <point x="56.7002" y="558.24" type="line"/>
      <point x="190.9" y="558.24" type="line"/>
      <point x="190.9" y="-9.36035" type="line"/>
    </contour>
  </outline>
</glyph>
<glyph name="uni006A" format="1">
  <advance width="242"/>
  <unicode hex="006A"/>
  <outline>
    <contour>
      <point x="-42" y="-199.36" type="line"/>
      <point x="-12.2998" y="-70.6602" type="line"/>
      <point x="17.4004" y="-70.6602" type="line"/>
      <point x="48.2002" y="-69.5596"/>
      <point x="53.7002" y="-44.2598"/>
      <point x="53.7002" y="-42.0596" type="curve" smooth="yes"/>
      <point x="53.7002" y="567.34" type="line"/>
      <point x="187.9" y="567.34" type="line"/>
      <point x="187.9" y="-42.0596" type="line" smooth="yes"/>
      <point x="187.9" y="-93.7598"/>
      <point x="132.9" y="-199.36"/>
      <point x="20.7002" y="-199.36" type="curve" smooth="yes"/>
    </contour>
    <contour>
      <point x="39.4004" y="690.54" type="curve" smooth="yes"/>
      <point x="39.4004" y="734.54"/>
      <point x="75.7002" y="771.94"/>
      <point x="119.7" y="771.94" type="curve" smooth="yes"/>
      <point x="163.7" y="771.94"/>
      <point x="200" y="734.54"/>
      <point x="200" y="690.54" type="curve" smooth="yes"/>
      <point x="200" y="646.54"/>
      <point x="163.7" y="611.34"/>
      <point x="119.7" y="611.34" type="curve" smooth="yes"/>
      <point x="75.7002" y="611.34"/>
      <point x="39.4004" y="646.54"/>
    </contour>
  </outline>
</glyph>
<glyph name="uni006B" format="1">
  <advance width="500"/>
  <unicode hex="006B"/>
  <outline>
    <contour>
      <point x="42.1992" y="-9.11035" type="line"/>
      <point x="42.1992" y="758.69" type="line"/>
      <point x="179.699" y="758.69" type="line"/>
      <point x="179.699" y="-9.11035" type="line"/>
    </contour>
    <contour>
      <point x="210.5" y="273.59" type="line"/>
      <point x="333.699" y="556.29" type="line"/>
      <point x="480" y="556.29" type="line"/>
      <point x="353.5" y="273.59" type="line"/>
      <point x="480" y="-9.11035" type="line"/>
      <point x="334.8" y="-9.11035" type="line"/>
    </contour>
  </outline>
</glyph>
<glyph name="uni006C" format="1">
  <advance width="226"/>
  <unicode hex="006C"/>
  <outline>
    <contour>
      <point x="41.9004" y="-9.11035" type="line"/>
      <point x="41.9004" y="758.69" type="line"/>
      <point x="186" y="758.69" type="line"/>
      <point x="186" y="-9.11035" type="line"/>
    </contour>
  </outline>
</glyph>
<glyph name="uni006D" format="1">
  <advance width="762"/>
  <unicode hex="006D"/>
  <outline>
    <contour>
      <point x="37.5996" y="-0.160156" type="line"/>
      <point x="37.5996" y="414.54" type="line" smooth="yes"/>
      <point x="37.5996" y="467.34"/>
      <point x="97" y="570.74"/>
      <point x="212.5" y="570.74" type="curve" smooth="yes"/>
      <point x="219.1" y="570.74" type="line"/>
      <point x="219.1" y="437.64" type="line"/>
      <point x="212.5" y="437.64" type="line" smooth="yes"/>
      <point x="179.5" y="437.64"/>
      <point x="174" y="411.24"/>
      <point x="174" y="409.04" type="curve"/>
      <point x="174" y="-0.160156" type="line"/>
    </contour>
    <contour>
      <point x="265.3" y="437.64" type="line"/>
      <point x="265.3" y="570.74" type="line"/>
      <point x="271.899" y="570.74" type="line" smooth="yes"/>
      <point x="318.1" y="570.74"/>
      <point x="353.3" y="555.34"/>
      <point x="380.8" y="534.44" type="curve"/>
      <point x="408.3" y="556.44"/>
      <point x="443.5" y="570.74"/>
      <point x="489.7" y="570.74" type="curve" smooth="yes"/>
      <point x="496.3" y="570.74" type="line"/>
      <point x="496.3" y="437.64" type="line"/>
      <point x="489.7" y="437.64" type="line" smooth="yes"/>
      <point x="455.6" y="437.64"/>
      <point x="449" y="411.24"/>
      <point x="449" y="409.04" type="curve"/>
      <point x="449" y="-0.160156" type="line"/>
      <point x="312.6" y="-0.160156" type="line"/>
      <point x="312.6" y="409.04" type="line" smooth="yes"/>
      <point x="312.6" y="412.34"/>
      <point x="304.899" y="437.64"/>
      <point x="271.899" y="437.64" type="curve" smooth="yes"/>
    </contour>
    <contour>
      <point x="541.399" y="437.64" type="line"/>
      <point x="541.399" y="570.74" type="line"/>
      <point x="548" y="570.74" type="line" smooth="yes"/>
      <point x="664.6" y="570.74"/>
      <point x="724" y="464.04"/>
      <point x="724" y="414.54" type="curve" smooth="yes"/>
      <point x="724" y="-0.160156" type="line"/>
      <point x="587.6" y="-0.160156" type="line"/>
      <point x="587.6" y="409.04" type="line"/>
      <point x="587.6" y="412.34"/>
      <point x="581" y="437.64"/>
      <point x="548" y="437.64" type="curve" smooth="yes"/>
    </contour>
  </outline>
</glyph>
<glyph name="uni006E" format="1">
  <advance width="487"/>
  <unicode hex="006E"/>
  <outline>
    <contour>
      <point x="37.5996" y="-0.160156" type="line"/>
      <point x="37.5996" y="414.54" type="line" smooth="yes"/>
      <point x="37.5996" y="467.34"/>
      <point x="97" y="570.74"/>
      <point x="214.7" y="570.74" type="curve" smooth="yes"/>
      <point x="220.2" y="570.74" type="line"/>
      <point x="220.2" y="437.64" type="line"/>
      <point x="214.7" y="437.64" type="line" smooth="yes"/>
      <point x="180.6" y="437.64"/>
      <point x="174" y="411.24"/>
      <point x="174" y="409.04" type="curve"/>
      <point x="174" y="-0.160156" type="line"/>
    </contour>
    <contour>
      <point x="266.399" y="437.64" type="line"/>
      <point x="266.399" y="570.74" type="line"/>
      <point x="271.899" y="570.74" type="line" smooth="yes"/>
      <point x="389.6" y="570.74"/>
      <point x="449" y="464.04"/>
      <point x="449" y="414.54" type="curve" smooth="yes"/>
      <point x="449" y="-0.160156" type="line"/>
      <point x="312.6" y="-0.160156" type="line"/>
      <point x="312.6" y="409.04" type="line"/>
      <point x="312.6" y="412.34"/>
      <point x="304.899" y="437.64"/>
      <point x="271.899" y="437.64" type="curve" smooth="yes"/>
    </contour>
  </outline>
</glyph>
<glyph name="uni006F" format="1">
  <advance width="476"/>
  <unicode hex="006F"/>
  <outline>
    <contour>
      <point x="38" y="155.14" type="curve" smooth="yes"/>
      <point x="38" y="413.64" type="line" smooth="yes"/>
      <point x="38" y="463.14"/>
      <point x="94.1006" y="567.64"/>
      <point x="211.8" y="567.64" type="curve" smooth="yes"/>
      <point x="218.4" y="567.64" type="line"/>
      <point x="218.4" y="437.84" type="line"/>
      <point x="211.8" y="437.84" type="line" smooth="yes"/>
      <point x="175.5" y="437.84"/>
      <point x="170" y="410.34"/>
      <point x="170" y="399.34" type="curve"/>
      <point x="170" y="169.44" type="line"/>
      <point x="170" y="148.54"/>
      <point x="178.8" y="128.74"/>
      <point x="211.8" y="128.74" type="curve" smooth="yes"/>
      <point x="218.4" y="128.74" type="line"/>
      <point x="218.4" y="-1.05957" type="line"/>
      <point x="211.8" y="-1.05957" type="line" smooth="yes"/>
      <point x="93" y="-1.05957"/>
      <point x="38" y="106.74"/>
    </contour>
    <contour>
      <point x="263.5" y="-1.05957" type="line"/>
      <point x="263.5" y="128.74" type="line"/>
      <point x="270.101" y="128.74" type="line" smooth="yes"/>
      <point x="304.2" y="129.84"/>
      <point x="309.7" y="155.14"/>
      <point x="309.7" y="167.24" type="curve"/>
      <point x="309.7" y="399.34" type="line"/>
      <point x="309.7" y="418.04"/>
      <point x="303.101" y="437.84"/>
      <point x="270.101" y="437.84" type="curve" smooth="yes"/>
      <point x="263.5" y="437.84" type="line"/>
      <point x="263.5" y="567.64" type="line"/>
      <point x="270.101" y="567.64" type="line" smooth="yes"/>
      <point x="383.4" y="567.64"/>
      <point x="438.4" y="463.14"/>
      <point x="438.4" y="413.64" type="curve" smooth="yes"/>
      <point x="438.4" y="155.14" type="line" smooth="yes"/>
      <point x="438.4" y="105.64"/>
      <point x="384.5" y="-1.05957"/>
      <point x="270.101" y="-1.05957" type="curve" smooth="yes"/>
    </contour>
  </outline>
</glyph>
<glyph name="uni0070" format="1">
  <advance width="481"/>
  <unicode hex="0070"/>
  <outline>
    <contour>
      <point x="42" y="-191.11" type="line"/>
      <point x="42" y="576.69" type="line"/>
      <point x="179.5" y="576.69" type="line"/>
      <point x="179.5" y="-191.11" type="line"/>
    </contour>
    <contour>
      <point x="224.6" y="446.89" type="line"/>
      <point x="224.6" y="576.69" type="line"/>
      <point x="259.8" y="576.69" type="line" smooth="yes"/>
      <point x="377.5" y="576.69"/>
      <point x="444.6" y="483.19"/>
      <point x="444.6" y="421.59" type="curve" smooth="yes"/>
      <point x="444.6" y="161.99" type="line"/>
      <point x="444.6" y="103.69"/>
      <point x="388.5" y="9.08984"/>
      <point x="264.2" y="9.08984" type="curve" smooth="yes"/>
      <point x="232.3" y="9.08984" type="line"/>
      <point x="232.3" y="138.89" type="line"/>
      <point x="266.399" y="138.89" type="line"/>
      <point x="307.1" y="139.99"/>
      <point x="312.6" y="156.49"/>
      <point x="312.6" y="166.39" type="curve" smooth="yes"/>
      <point x="312.6" y="418.29" type="line"/>
      <point x="312.6" y="432.59"/>
      <point x="292.8" y="446.89"/>
      <point x="259.8" y="446.89" type="curve" smooth="yes"/>
    </contour>
  </outline>
</glyph>
<glyph name="uni0071" format="1">
  <advance width="476"/>
  <unicode hex="0071"/>
  <outline>
    <contour>
      <point x="38" y="161.99" type="curve"/>
      <point x="38" y="421.59" type="line" smooth="yes"/>
      <point x="38" y="471.09"/>
      <point x="93" y="576.69"/>
      <point x="210.7" y="576.69" type="curve" smooth="yes"/>
      <point x="244.8" y="576.69" type="line"/>
      <point x="244.8" y="446.89" type="line"/>
      <point x="210.7" y="446.89" type="line" smooth="yes"/>
      <point x="175.5" y="446.89"/>
      <point x="170" y="421.59"/>
      <point x="170" y="419.39" type="curve"/>
      <point x="170" y="166.39" type="line" smooth="yes"/>
      <point x="170" y="164.19"/>
      <point x="174.4" y="139.99"/>
      <point x="216.2" y="138.89" type="curve" smooth="yes"/>
      <point x="250.3" y="138.89" type="line"/>
      <point x="250.3" y="9.08984" type="line"/>
      <point x="218.4" y="9.08984" type="line" smooth="yes"/>
      <point x="94.0996" y="9.08984"/>
      <point x="39.0996" y="111.39"/>
    </contour>
    <contour>
      <point x="296.5" y="576.69" type="line"/>
      <point x="432.9" y="576.69" type="line"/>
      <point x="434" y="-191.11" type="line"/>
      <point x="297.6" y="-191.11" type="line"/>
    </contour>
  </outline>
</glyph>
<glyph name="uni0072" format="1">
  <advance width="361"/>
  <unicode hex="0072"/>
  <outline>
    <contour>
      <point x="41.9004" y="-0.00976562" type="line"/>
      <point x="41.9004" y="567.59" type="line"/>
      <point x="178.3" y="567.59" type="line"/>
      <point x="178.3" y="499.39" type="line"/>
      <point x="201.4" y="529.09"/>
      <point x="254.2" y="567.59"/>
      <point x="314.7" y="567.59" type="curve" smooth="yes"/>
      <point x="351" y="567.59" type="line"/>
      <point x="320.2" y="434.49" type="line"/>
      <point x="246.5" y="433.39"/>
      <point x="178.3" y="364.09"/>
      <point x="178.3" y="298.09" type="curve" smooth="yes"/>
      <point x="178.3" y="-0.00976562" type="line"/>
    </contour>
  </outline>
</glyph>
<glyph name="uni0073" format="1">
  <advance width="454"/>
  <unicode hex="0073"/>
  <outline>
    <contour>
      <point x="20.4004" y="149.79" type="line"/>
      <point x="143.601" y="172.89" type="line"/>
      <point x="143.601" y="169.59" type="line" smooth="yes"/>
      <point x="145.8" y="148.69"/>
      <point x="170" y="124.49"/>
      <point x="196.4" y="122.29" type="curve" smooth="yes"/>
      <point x="199.7" y="121.19" type="line"/>
      <point x="199.7" y="-5.30957" type="line"/>
      <point x="196.4" y="-5.30957" type="line" smooth="yes"/>
      <point x="93" y="-5.30957"/>
      <point x="24.7998" y="77.1904"/>
      <point x="21.5" y="147.59" type="curve" smooth="yes"/>
    </contour>
    <contour>
      <point x="25.9004" y="408.29" type="curve" smooth="yes"/>
      <point x="25.9004" y="520.49"/>
      <point x="134.8" y="568.89"/>
      <point x="194.2" y="568.89" type="curve" smooth="yes"/>
      <point x="197.5" y="568.89" type="line"/>
      <point x="197.5" y="446.79" type="line"/>
      <point x="195.3" y="446.79" type="line" smooth="yes"/>
      <point x="151.3" y="442.39"/>
      <point x="149.101" y="414.89"/>
      <point x="149.101" y="398.39" type="curve" smooth="yes"/>
      <point x="149.101" y="378.59"/>
      <point x="165.601" y="355.49"/>
      <point x="320.7" y="325.79" type="curve" smooth="yes"/>
      <point x="377.9" y="314.79"/>
      <point x="434" y="267.49"/>
      <point x="434" y="176.19" type="curve" smooth="yes"/>
      <point x="434" y="62.8896"/>
      <point x="350.4" y="-5.30957"/>
      <point x="248.101" y="-5.30957" type="curve" smooth="yes"/>
      <point x="244.8" y="-5.30957" type="line"/>
      <point x="244.8" y="120.09" type="line"/>
      <point x="248.101" y="120.09" type="line" smooth="yes"/>
      <point x="264.601" y="121.19"/>
      <point x="305.3" y="132.19"/>
      <point x="305.3" y="168.49" type="curve" smooth="yes"/>
      <point x="305.3" y="217.99"/>
      <point x="182.101" y="226.79"/>
      <point x="119.4" y="255.39" type="curve" smooth="yes"/>
      <point x="65.5" y="281.79"/>
      <point x="25.9004" y="315.89"/>
    </contour>
    <contour>
      <point x="242.601" y="444.59" type="line"/>
      <point x="243.7" y="568.89" type="line"/>
      <point x="247" y="568.89" type="line" smooth="yes"/>
      <point x="350.4" y="568.89"/>
      <point x="424.101" y="484.19"/>
      <point x="424.101" y="413.79" type="curve" smooth="yes"/>
      <point x="424.101" y="411.59" type="line"/>
      <point x="300.9" y="390.69" type="line"/>
      <point x="300.9" y="393.99" type="line" smooth="yes"/>
      <point x="296.5" y="439.09"/>
      <point x="254.7" y="444.59"/>
      <point x="245.9" y="444.59" type="curve" smooth="yes"/>
    </contour>
  </outline>
</glyph>
<glyph name="uni0074" format="1">
  <advance width="314"/>
  <unicode hex="0074"/>
  <outline>
    <contour>
      <point x="14.8008" y="428.59" type="line"/>
      <point x="14.8008" y="558.39" type="line"/>
      <point x="84.1006" y="558.39" type="line"/>
      <point x="84.1006" y="760.79" type="line"/>
      <point x="218.301" y="760.79" type="line"/>
      <point x="218.301" y="558.39" type="line"/>
      <point x="284.301" y="558.39" type="line"/>
      <point x="284.301" y="428.59" type="line"/>
      <point x="218.301" y="428.59" type="line"/>
      <point x="218.301" y="165.69" type="line" smooth="yes"/>
      <point x="218.301" y="150.29"/>
      <point x="223.801" y="129.39"/>
      <point x="254.601" y="128.29" type="curve" smooth="yes"/>
      <point x="284.301" y="128.29" type="line"/>
      <point x="314" y="-9.20996" type="line"/>
      <point x="253.5" y="-9.20996" type="line" smooth="yes"/>
      <point x="119.301" y="-8.11035"/>
      <point x="84.1006" y="63.3896"/>
      <point x="84.1006" y="175.59" type="curve" smooth="yes"/>
      <point x="84.1006" y="428.59" type="line"/>
    </contour>
  </outline>
</glyph>
<glyph name="uni0075" format="1">
  <advance width="487"/>
  <unicode hex="0075"/>
  <outline>
    <contour>
      <point x="37.5996" y="151.04" type="curve" smooth="yes"/>
      <point x="37.5996" y="565.74" type="line"/>
      <point x="174" y="565.74" type="line"/>
      <point x="174" y="156.54" type="line"/>
      <point x="174" y="153.24"/>
      <point x="180.6" y="127.94"/>
      <point x="214.7" y="127.94" type="curve" smooth="yes"/>
      <point x="220.2" y="127.94" type="line"/>
      <point x="220.2" y="-5.16016" type="line"/>
      <point x="214.7" y="-5.16016" type="line" smooth="yes"/>
      <point x="97" y="-5.16016"/>
      <point x="37.5996" y="98.2402"/>
    </contour>
    <contour>
      <point x="266.399" y="-5.16016" type="line"/>
      <point x="266.399" y="127.94" type="line"/>
      <point x="271.899" y="127.94" type="line" smooth="yes"/>
      <point x="306" y="127.94"/>
      <point x="312.6" y="154.34"/>
      <point x="312.6" y="156.54" type="curve"/>
      <point x="312.6" y="565.74" type="line"/>
      <point x="449" y="565.74" type="line"/>
      <point x="449" y="151.04" type="line" smooth="yes"/>
      <point x="449" y="101.54"/>
      <point x="389.6" y="-5.16016"/>
      <point x="271.899" y="-5.16016" type="curve" smooth="yes"/>
    </contour>
  </outline>
</glyph>
<glyph name="uni0076" format="1">
  <advance width="438"/>
  <unicode hex="0076"/>
  <outline>
    <contour>
      <point x="7.59961" y="566.49" type="line"/>
      <point x="156.1" y="567.59" type="line"/>
      <point x="304.6" y="131.99" type="line"/>
      <point x="257.3" y="-0.00976562" type="line"/>
      <point x="181.399" y="-0.00976562" type="line"/>
    </contour>
    <contour>
      <point x="245.2" y="433.39" type="line"/>
      <point x="285.899" y="567.59" type="line"/>
      <point x="430" y="566.49" type="line"/>
      <point x="328.8" y="228.79" type="line"/>
      <point x="315.6" y="228.79" type="line"/>
    </contour>
  </outline>
</glyph>
<glyph name="uni0077" format="1">
  <advance width="633"/>
  <unicode hex="0077"/>
  <outline>
    <contour>
      <point x="7.90039" y="566.49" type="line"/>
      <point x="157.5" y="567.59" type="line"/>
      <point x="286.2" y="131.99" type="line"/>
      <point x="243.3" y="-0.00976562" type="line"/>
      <point x="175.101" y="-0.00976562" type="line"/>
    </contour>
    <contour>
      <point x="208.101" y="566.49" type="line"/>
      <point x="359.9" y="567.59" type="line"/>
      <point x="493" y="131.99" type="line"/>
      <point x="452.3" y="-0.00976562" type="line"/>
      <point x="381.9" y="-0.00976562" type="line"/>
    </contour>
    <contour>
      <point x="446.8" y="433.39" type="line"/>
      <point x="486.4" y="567.59" type="line"/>
      <point x="625" y="566.49" type="line"/>
      <point x="517.2" y="228.79" type="line"/>
      <point x="508.4" y="228.79" type="line"/>
    </contour>
  </outline>
</glyph>
<glyph name="uni0078" format="1">
  <advance width="416"/>
  <unicode hex="0078"/>
  <outline>
    <contour>
      <point x="7.59961" y="-0.00976562" type="line"/>
      <point x="133" y="288.19" type="line"/>
      <point x="12" y="567.59" type="line"/>
      <point x="149.5" y="567.59" type="line"/>
      <point x="207.8" y="438.89" type="line"/>
      <point x="265" y="566.49" type="line"/>
      <point x="403.6" y="566.49" type="line"/>
      <point x="283.7" y="288.19" type="line"/>
      <point x="408" y="-0.00976562" type="line"/>
      <point x="270.5" y="-0.00976562" type="line"/>
      <point x="207.8" y="138.59" type="line"/>
      <point x="145.1" y="-0.00976562" type="line"/>
    </contour>
  </outline>
</glyph>
<glyph name="uni0079" format="1">
  <advance width="429"/>
  <unicode hex="0079"/>
  <outline>
    <contour>
      <point x="4.80078" y="574.54" type="line"/>
      <point x="148.9" y="575.64" type="line"/>
      <point x="211.601" y="368.84" type="line"/>
      <point x="211.601" y="369.94"/>
      <point x="212.7" y="369.94"/>
      <point x="212.7" y="371.04" type="curve"/>
      <point x="282" y="131.24" type="line"/>
      <point x="175.301" y="-191.06" type="line"/>
      <point x="36.7002" y="-191.06" type="line"/>
      <point x="134.601" y="133.44" type="line"/>
    </contour>
    <contour>
      <point x="239.101" y="441.44" type="line"/>
      <point x="280.9" y="575.64" type="line"/>
      <point x="425" y="574.54" type="line"/>
      <point x="311.7" y="237.94" type="line"/>
      <point x="298.5" y="237.94" type="line"/>
    </contour>
  </outline>
</glyph>
<glyph name="uni007A" format="1">
  <advance width="386"/>
  <unicode hex="007A"/>
  <outline>
    <contour>
      <point x="30.4004" y="0.0898438" type="line"/>
      <point x="30.4004" y="127.69" type="line"/>
      <point x="203.101" y="433.49" type="line"/>
      <point x="30.4004" y="433.49" type="line"/>
      <point x="30.4004" y="565.49" type="line"/>
      <point x="356" y="565.49" type="line"/>
      <point x="356" y="440.09" type="line"/>
      <point x="187.7" y="129.89" type="line"/>
      <point x="356" y="128.79" type="line"/>
      <point x="356" y="0.0898438" type="line"/>
    </contour>
  </outline>
</glyph>
<glyph name="uni007B" format="1">
  <advance width="292"/>
  <unicode hex="007B"/>
  <outline>
    <contour>
      <point x="15" y="348" type="curve"/>
      <point x="51" y="363"/>
      <point x="76" y="370"/>
      <point x="77" y="408" type="curve" smooth="yes"/>
      <point x="77" y="504" type="line" smooth="yes"/>
      <point x="77" y="715"/>
      <point x="163" y="735"/>
      <point x="272" y="735" type="curve"/>
      <point x="272" y="635" type="line"/>
      <point x="204" y="635"/>
      <point x="205" y="591"/>
      <point x="204" y="469" type="curve"/>
      <point x="204" y="383" type="line" smooth="yes"/>
      <point x="204" y="366"/>
      <point x="184" y="354"/>
      <point x="160" y="348" type="curve"/>
      <point x="185" y="340"/>
      <point x="204" y="325"/>
      <point x="204" y="304" type="curve" smooth="yes"/>
      <point x="204" y="207" type="line" smooth="yes"/>
      <point x="204" y="86"/>
      <point x="218" y="61"/>
      <point x="272" y="61" type="curve"/>
      <point x="272" y="-38" type="line"/>
      <point x="266" y="-38"/>
      <point x="260" y="-38"/>
      <point x="254" y="-38" type="curve" smooth="yes"/>
      <point x="165" y="-38"/>
      <point x="77" y="-31"/>
      <point x="77" y="192" type="curve" smooth="yes"/>
      <point x="77" y="290" type="line" smooth="yes"/>
      <point x="77" y="322"/>
      <point x="51" y="329"/>
    </contour>
  </outline>
</glyph>
<glyph name="uni007C" format="1">
  <advance width="205"/>
  <unicode hex="007C"/>
  <outline>
    <contour>
      <point x="50" y="-134" type="line"/>
      <point x="50" y="754" type="line"/>
      <point x="155" y="754" type="line"/>
      <point x="155" y="-134" type="line"/>
    </contour>
  </outline>
</glyph>
<glyph name="uni007D" format="1">
  <advance width="292"/>
  <unicode hex="007D"/>
  <outline>
    <contour>
      <point x="20" y="-38" type="curve"/>
      <point x="20" y="61" type="line"/>
      <point x="74" y="61"/>
      <point x="88" y="87"/>
      <point x="88" y="208" type="curve" smooth="yes"/>
      <point x="88" y="304" type="line" smooth="yes"/>
      <point x="88" y="325"/>
      <point x="107" y="340"/>
      <point x="132" y="348" type="curve"/>
      <point x="108" y="354"/>
      <point x="88" y="366"/>
      <point x="88" y="383" type="curve" smooth="yes"/>
      <point x="88" y="384"/>
      <point x="88" y="384"/>
      <point x="88" y="384" type="curve" smooth="yes"/>
      <point x="88" y="469" type="line" smooth="yes"/>
      <point x="87" y="591"/>
      <point x="88" y="635"/>
      <point x="20" y="635" type="curve"/>
      <point x="20" y="735" type="line"/>
      <point x="129" y="735"/>
      <point x="215" y="715"/>
      <point x="215" y="504" type="curve" smooth="yes"/>
      <point x="215" y="408" type="line" smooth="yes"/>
      <point x="216" y="370"/>
      <point x="241" y="363"/>
      <point x="277" y="348" type="curve"/>
      <point x="241" y="329"/>
      <point x="215" y="322"/>
      <point x="215" y="290" type="curve" smooth="yes"/>
      <point x="215" y="192" type="line" smooth="yes"/>
      <point x="215" y="-31"/>
      <point x="127" y="-38"/>
      <point x="38" y="-38" type="curve" smooth="yes"/>
      <point x="32" y="-38"/>
      <point x="26" y="-38"/>
    </contour>
  </outline>
</glyph>
<glyph name="uni007E" format="1">
  <advance width="628"/>
  <unicode hex="007E"/>
  <outline>
    <contour>
      <point x="80" y="272" type="curve"/>
      <point x="80" y="405" type="line"/>
      <point x="125" y="431"/>
      <point x="162" y="440"/>
      <point x="193" y="440" type="curve" smooth="yes"/>
      <point x="280" y="440"/>
      <point x="329" y="367"/>
      <point x="417" y="367" type="curve" smooth="yes"/>
      <point x="452" y="367"/>
      <point x="494" y="379"/>
      <point x="548" y="412" type="curve"/>
      <point x="548" y="281" type="line"/>
      <point x="492" y="247"/>
      <point x="448" y="235"/>
      <point x="411" y="235" type="curve" smooth="yes"/>
      <point x="319" y="235"/>
      <point x="269" y="308"/>
      <point x="187" y="308" type="curve" smooth="yes"/>
      <point x="157" y="308"/>
      <point x="122" y="299"/>
    </contour>
  </outline>
</glyph>
<glyph name="uni00A1" format="1">
  <advance width="245"/>
  <unicode hex="00A1"/>
  <outline>
    <contour>
      <point x="21.4004" y="494.64" type="curve" smooth="yes"/>
      <point x="21.4004" y="538.64"/>
      <point x="57.7002" y="574.94"/>
      <point x="101.7" y="574.94" type="curve" smooth="yes"/>
      <point x="145.7" y="574.94"/>
      <point x="182" y="538.64"/>
      <point x="182" y="494.64" type="curve" smooth="yes"/>
      <point x="182" y="451.74"/>
      <point x="145.7" y="415.44"/>
      <point x="101.7" y="415.44" type="curve" smooth="yes"/>
      <point x="57.7002" y="415.44"/>
      <point x="21.4004" y="451.74"/>
    </contour>
    <contour>
      <point x="35.7002" y="-198.36" type="line"/>
      <point x="35.7002" y="369.24" type="line"/>
      <point x="169.9" y="369.24" type="line"/>
      <point x="169.9" y="-198.36" type="line"/>
    </contour>
  </outline>
</glyph>
<glyph name="uni00A2" format="1">
  <advance width="494"/>
  <unicode hex="00A2"/>
  <outline>
    <contour>
      <point x="32" y="181" type="curve" smooth="yes"/>
      <point x="32" y="518" type="line" smooth="yes"/>
      <point x="32" y="567"/>
      <point x="68" y="660"/>
      <point x="158" y="693" type="curve"/>
      <point x="158" y="749" type="line"/>
      <point x="229" y="749" type="line"/>
      <point x="229" y="705" type="line"/>
      <point x="229" y="595" type="line"/>
      <point x="229" y="564" type="line"/>
      <point x="183" y="563"/>
      <point x="173" y="523"/>
      <point x="173" y="518" type="curve" smooth="yes"/>
      <point x="173" y="181" type="line" smooth="yes"/>
      <point x="173" y="176"/>
      <point x="183" y="136"/>
      <point x="229" y="136" type="curve"/>
      <point x="229" y="86" type="line"/>
      <point x="229" y="-5" type="line"/>
      <point x="229" y="-48" type="line"/>
      <point x="158" y="-48" type="line"/>
      <point x="158" y="7" type="line"/>
      <point x="68" y="40"/>
      <point x="32" y="132"/>
    </contour>
    <contour>
      <point x="283" y="-5" type="line"/>
      <point x="283" y="86" type="line"/>
      <point x="283" y="136" type="line"/>
      <point x="283" y="136"/>
      <point x="315" y="143"/>
      <point x="325" y="166" type="curve" smooth="yes"/>
      <point x="330" y="178"/>
      <point x="330" y="189"/>
      <point x="330" y="203" type="curve" smooth="yes"/>
      <point x="330" y="215" type="line"/>
      <point x="468" y="182" type="line"/>
      <point x="468" y="104"/>
      <point x="417" y="40"/>
      <point x="354" y="11" type="curve"/>
      <point x="354" y="-48" type="line"/>
      <point x="283" y="-48" type="line"/>
    </contour>
    <contour>
      <point x="283" y="564" type="curve"/>
      <point x="283" y="595" type="line"/>
      <point x="283" y="705" type="line"/>
      <point x="283" y="749" type="line"/>
      <point x="354" y="749" type="line"/>
      <point x="354" y="687" type="line"/>
      <point x="417" y="656"/>
      <point x="468" y="587"/>
      <point x="468" y="516" type="curve"/>
      <point x="330" y="480" type="line"/>
      <point x="330" y="495" type="line" smooth="yes"/>
      <point x="330" y="509"/>
      <point x="330" y="520"/>
      <point x="325" y="532" type="curve" smooth="yes"/>
      <point x="315" y="555"/>
      <point x="283" y="564"/>
    </contour>
  </outline>
</glyph>
<glyph name="uni00A4" format="1">
  <advance width="656"/>
  <unicode hex="00A4"/>
  <outline>
    <contour>
      <point x="50" y="540" type="line"/>
      <point x="122" y="622" type="line"/>
      <point x="198" y="555" type="line"/>
      <point x="223" y="578"/>
      <point x="259" y="595"/>
      <point x="304" y="595" type="curve" smooth="yes"/>
      <point x="310" y="595" type="line"/>
      <point x="310" y="477" type="line"/>
      <point x="304" y="477" type="line" smooth="yes"/>
      <point x="271" y="477"/>
      <point x="266" y="453"/>
      <point x="266" y="452" type="curve" smooth="yes"/>
      <point x="266" y="276" type="line" smooth="yes"/>
      <point x="266" y="273"/>
      <point x="274" y="251"/>
      <point x="304" y="251" type="curve" smooth="yes"/>
      <point x="310" y="251" type="line"/>
      <point x="310" y="133" type="line"/>
      <point x="304" y="133" type="line" smooth="yes"/>
      <point x="258" y="133"/>
      <point x="222" y="151"/>
      <point x="197" y="175" type="curve"/>
      <point x="122" y="109" type="line"/>
      <point x="51" y="190" type="line"/>
      <point x="146" y="275" type="line" smooth="yes"/>
      <point x="146" y="275"/>
      <point x="146" y="275"/>
      <point x="146" y="275" type="curve" smooth="yes"/>
      <point x="146" y="455" type="line" smooth="yes"/>
      <point x="146" y="455"/>
      <point x="146" y="455"/>
      <point x="146" y="456" type="curve" smooth="yes"/>
    </contour>
    <contour>
      <point x="351" y="133" type="line"/>
      <point x="351" y="247" type="line"/>
      <point x="357" y="247" type="line" smooth="yes"/>
      <point x="388" y="248"/>
      <point x="393" y="272"/>
      <point x="393" y="274" type="curve" smooth="yes"/>
      <point x="393" y="451" type="line" smooth="yes"/>
      <point x="393" y="454"/>
      <point x="387" y="477"/>
      <point x="357" y="477" type="curve" smooth="yes"/>
      <point x="351" y="477" type="line"/>
      <point x="351" y="595" type="line"/>
      <point x="357" y="595" type="line" smooth="yes"/>
      <point x="400" y="595"/>
      <point x="434" y="578"/>
      <point x="459" y="555" type="curve"/>
      <point x="534" y="622" type="line"/>
      <point x="606" y="540" type="line"/>
      <point x="510" y="456" type="line" smooth="yes"/>
      <point x="510" y="455"/>
      <point x="510" y="455"/>
      <point x="510" y="455" type="curve" smooth="yes"/>
      <point x="510" y="275" type="line" smooth="yes"/>
      <point x="510" y="275"/>
      <point x="510" y="275"/>
      <point x="510" y="275" type="curve" smooth="yes"/>
      <point x="605" y="190" type="line"/>
      <point x="534" y="109" type="line"/>
      <point x="460" y="174" type="line"/>
      <point x="435" y="150"/>
      <point x="401" y="133"/>
      <point x="357" y="133" type="curve" smooth="yes"/>
    </contour>
  </outline>
</glyph>
<glyph name="uni00A6" format="1">
  <advance width="222"/>
  <unicode hex="00A6"/>
  <outline>
    <contour>
      <point x="50" y="-134" type="line"/>
      <point x="50" y="221" type="line"/>
      <point x="172" y="221" type="line"/>
      <point x="172" y="-134" type="line"/>
    </contour>
    <contour>
      <point x="50" y="399" type="line"/>
      <point x="50" y="754" type="line"/>
      <point x="172" y="754" type="line"/>
      <point x="172" y="399" type="line"/>
    </contour>
  </outline>
</glyph>
<glyph name="uni00A8" format="1">
  <advance width="320"/>
  <unicode hex="00A8"/>
  <outline>
    <contour>
      <point x="0" y="678" type="curve" smooth="yes"/>
      <point x="0" y="720"/>
      <point x="33" y="754"/>
      <point x="75" y="754" type="curve" smooth="yes"/>
      <point x="117" y="754"/>
      <point x="150" y="720"/>
      <point x="150" y="678" type="curve" smooth="yes"/>
      <point x="150" y="636"/>
      <point x="117" y="603"/>
      <point x="75" y="603" type="curve" smooth="yes"/>
      <point x="33" y="603"/>
      <point x="0" y="636"/>
    </contour>
    <contour>
      <point x="170" y="678" type="curve" smooth="yes"/>
      <point x="170" y="720"/>
      <point x="203" y="754"/>
      <point x="245" y="754" type="curve" smooth="yes"/>
      <point x="287" y="754"/>
      <point x="320" y="720"/>
      <point x="320" y="678" type="curve" smooth="yes"/>
      <point x="320" y="636"/>
      <point x="287" y="603"/>
      <point x="245" y="603" type="curve" smooth="yes"/>
      <point x="203" y="603"/>
      <point x="170" y="636"/>
    </contour>
  </outline>
</glyph>
<glyph name="uni00AB" format="1">
  <advance width="475"/>
  <unicode hex="00AB"/>
  <outline>
    <contour>
      <point x="27" y="259" type="line"/>
      <point x="27" y="321" type="line"/>
      <point x="238" y="477" type="line"/>
      <point x="238" y="352" type="line"/>
      <point x="149" y="292" type="line"/>
      <point x="238" y="224" type="line"/>
      <point x="238" y="102" type="line"/>
    </contour>
    <contour>
      <point x="238" y="259" type="line"/>
      <point x="238" y="321" type="line"/>
      <point x="449" y="477" type="line"/>
      <point x="449" y="352" type="line"/>
      <point x="360" y="292" type="line"/>
      <point x="449" y="224" type="line"/>
      <point x="449" y="102" type="line"/>
    </contour>
  </outline>
</glyph>
<glyph name="uni00B0" format="1">
  <advance width="282"/>
  <unicode hex="00B0"/>
  <outline>
    <contour>
      <point x="25" y="583" type="curve" smooth="yes"/>
      <point x="25" y="647"/>
      <point x="77" y="698"/>
      <point x="140" y="698" type="curve" smooth="yes"/>
      <point x="204" y="698"/>
      <point x="256" y="647"/>
      <point x="256" y="583" type="curve" smooth="yes"/>
      <point x="256" y="520"/>
      <point x="204" y="468"/>
      <point x="140" y="468" type="curve" smooth="yes"/>
      <point x="77" y="468"/>
      <point x="25" y="520"/>
    </contour>
    <contour>
      <point x="102" y="583" type="curve" smooth="yes"/>
      <point x="102" y="562"/>
      <point x="119" y="545"/>
      <point x="140" y="545" type="curve" smooth="yes"/>
      <point x="162" y="545"/>
      <point x="179" y="562"/>
      <point x="179" y="583" type="curve" smooth="yes"/>
      <point x="179" y="605"/>
      <point x="162" y="622"/>
      <point x="140" y="622" type="curve" smooth="yes"/>
      <point x="119" y="622"/>
      <point x="102" y="605"/>
    </contour>
  </outline>
</glyph>
<glyph name="uni00B1" format="1">
  <advance width="575"/>
  <unicode hex="00B1"/>
  <outline>
    <contour>
      <point x="100" y="40" type="line"/>
      <point x="100" y="167" type="line"/>
      <point x="476" y="167" type="line"/>
      <point x="476" y="40" type="line"/>
    </contour>
    <component base="uni002B" yOffset="161"/>
  </outline>
</glyph>
<glyph name="uni00B3" format="1">
  <advance width="247"/>
  <unicode hex="00B3"/>
  <outline>
    <contour>
      <point x="26" y="439" type="line"/>
      <point x="78" y="470" type="line"/>
      <point x="80" y="467" type="line" smooth="yes"/>
      <point x="85" y="459"/>
      <point x="92" y="455"/>
      <point x="104" y="454" type="curve" smooth="yes"/>
      <point x="107" y="453" type="line"/>
      <point x="107" y="392" type="line"/>
      <point x="104" y="392" type="line" smooth="yes"/>
      <point x="69" y="392"/>
      <point x="43" y="406"/>
      <point x="28" y="436" type="curve"/>
    </contour>
    <contour>
      <point x="26" y="654" type="line"/>
      <point x="28" y="657" type="line" smooth="yes"/>
      <point x="43" y="682"/>
      <point x="69" y="701"/>
      <point x="104" y="701" type="curve" smooth="yes"/>
      <point x="107" y="701" type="line"/>
      <point x="107" y="640" type="line"/>
      <point x="104" y="640" type="line" smooth="yes"/>
      <point x="92" y="639"/>
      <point x="85" y="634"/>
      <point x="80" y="626" type="curve" smooth="yes"/>
      <point x="78" y="623" type="line"/>
    </contour>
    <contour>
      <point x="97" y="516" type="line"/>
      <point x="97" y="577" type="line"/>
      <point x="101" y="577" type="line" smooth="yes"/>
      <point x="152" y="577"/>
      <point x="157" y="588"/>
      <point x="157" y="612" type="curve" smooth="yes"/>
      <point x="157" y="633"/>
      <point x="141" y="640"/>
      <point x="130" y="640" type="curve" smooth="yes"/>
      <point x="125" y="640" type="line"/>
      <point x="125" y="701" type="line"/>
      <point x="128" y="701" type="line" smooth="yes"/>
      <point x="188" y="700"/>
      <point x="219" y="650"/>
      <point x="219" y="616" type="curve" smooth="yes"/>
      <point x="219" y="578"/>
      <point x="208" y="557"/>
      <point x="195" y="547" type="curve"/>
      <point x="207" y="537"/>
      <point x="221" y="516"/>
      <point x="221" y="482" type="curve" smooth="yes"/>
      <point x="221" y="426"/>
      <point x="167" y="392"/>
      <point x="131" y="392" type="curve" smooth="yes"/>
      <point x="126" y="392" type="line"/>
      <point x="126" y="452" type="line"/>
      <point x="129" y="452" type="line" smooth="yes"/>
      <point x="145" y="452"/>
      <point x="157" y="467"/>
      <point x="157" y="483" type="curve" smooth="yes"/>
      <point x="157" y="507"/>
      <point x="151" y="516"/>
      <point x="101" y="516" type="curve" smooth="yes"/>
    </contour>
  </outline>
</glyph>
<glyph name="uni00B4" format="1">
  <advance width="263"/>
  <unicode hex="00B4"/>
  <outline>
    <contour>
      <point x="50" y="605" type="line"/>
      <point x="87" y="757" type="line"/>
      <point x="214" y="757" type="line"/>
      <point x="141" y="605" type="line"/>
    </contour>
  </outline>
</glyph>
<glyph name="uni00BC" format="1">
  <advance width="560"/>
  <unicode hex="00BC"/>
  <outline>
    <contour>
      <point x="26" y="-2" type="line"/>
      <point x="458" y="702" type="line"/>
      <point x="534" y="702" type="line"/>
      <point x="109" y="-2" type="line"/>
    </contour>
    <contour>
      <point x="75" y="567" type="line"/>
      <point x="75" y="671" type="line"/>
      <point x="114" y="702" type="line"/>
      <point x="181" y="702" type="line"/>
      <point x="181" y="349" type="line"/>
      <point x="113" y="349" type="line"/>
      <point x="113" y="597" type="line"/>
    </contour>
    <contour>
      <point x="270" y="71" type="line"/>
      <point x="270" y="137" type="line"/>
      <point x="368" y="305" type="line"/>
      <point x="368" y="175" type="line"/>
      <point x="346" y="137" type="line"/>
      <point x="368" y="137" type="line"/>
      <point x="368" y="71" type="line"/>
    </contour>
    <contour>
      <point x="393" y="-1" type="line"/>
      <point x="393" y="352" type="line"/>
      <point x="461" y="352" type="line"/>
      <point x="461" y="137" type="line"/>
      <point x="488" y="137" type="line"/>
      <point x="488" y="71" type="line"/>
      <point x="461" y="71" type="line"/>
      <point x="461" y="-1" type="line"/>
    </contour>
  </outline>
</glyph>
<glyph name="uni00C6" format="1">
  <advance width="727"/>
  <unicode hex="00C6"/>
  <outline>
    <contour>
      <point x="26" y="0" type="line"/>
      <point x="206" y="700" type="line"/>
      <point x="701" y="700" type="line"/>
      <point x="701" y="560" type="line"/>
      <point x="483" y="560" type="line"/>
      <point x="478" y="560" type="line"/>
      <point x="478" y="418" type="line"/>
      <point x="607" y="418" type="line"/>
      <point x="607" y="277" type="line"/>
      <point x="478" y="277" type="line"/>
      <point x="478" y="141" type="line"/>
      <point x="701" y="141" type="line"/>
      <point x="701" y="0" type="line"/>
      <point x="337" y="0" type="line"/>
      <point x="337" y="148" type="line"/>
      <point x="272" y="148" type="line"/>
      <point x="301" y="268" type="line"/>
      <point x="337" y="268" type="line"/>
      <point x="337" y="560" type="line"/>
      <point x="320" y="560" type="line"/>
      <point x="182" y="0" type="line"/>
    </contour>
  </outline>
</glyph>
<glyph name="uni00DE" format="1">
  <advance width="474"/>
  <unicode hex="00DE"/>
  <outline>
    <contour>
      <point x="26" y="0" type="line"/>
      <point x="26" y="700" type="line"/>
      <point x="167" y="700" type="line"/>
      <point x="167" y="0" type="line"/>
    </contour>
    <contour>
      <point x="221" y="208" type="curve"/>
      <point x="221" y="347" type="line"/>
      <point x="254" y="347" type="line" smooth="yes"/>
      <point x="261" y="347"/>
      <point x="305" y="348"/>
      <point x="305" y="398" type="curve" smooth="yes"/>
      <point x="305" y="449"/>
      <point x="263" y="451"/>
      <point x="254" y="451" type="curve" smooth="yes"/>
      <point x="221" y="451" type="line"/>
      <point x="221" y="590" type="line"/>
      <point x="402" y="590"/>
      <point x="448" y="516"/>
      <point x="448" y="402" type="curve" smooth="yes"/>
      <point x="448" y="259"/>
      <point x="378" y="208"/>
    </contour>
  </outline>
</glyph>
<glyph name="uni00E6" format="1">
  <advance width="666"/>
  <unicode hex="00E6"/>
  <outline>
    <contour>
      <point x="26" y="110" type="curve" smooth="yes"/>
      <point x="26" y="180" type="line" smooth="yes"/>
      <point x="26" y="213"/>
      <point x="33" y="233"/>
      <point x="75" y="257" type="curve" smooth="yes"/>
      <point x="118" y="282"/>
      <point x="268" y="311"/>
      <point x="268" y="351" type="curve" smooth="yes"/>
      <point x="268" y="363" type="line" smooth="yes"/>
      <point x="268" y="387"/>
      <point x="266" y="407"/>
      <point x="231" y="407" type="curve" smooth="yes"/>
      <point x="178" y="407" type="line" smooth="yes"/>
      <point x="155" y="407"/>
      <point x="138" y="390"/>
      <point x="138" y="353" type="curve" smooth="yes"/>
      <point x="138" y="349" type="line"/>
      <point x="33" y="389" type="line"/>
      <point x="33" y="391" type="line" smooth="yes"/>
      <point x="33" y="462"/>
      <point x="110" y="519"/>
      <point x="178" y="519" type="curve" smooth="yes"/>
      <point x="233" y="519" type="line" smooth="yes"/>
      <point x="273" y="519"/>
      <point x="305" y="504"/>
      <point x="329" y="483" type="curve"/>
      <point x="353" y="502"/>
      <point x="385" y="516"/>
      <point x="424" y="516" type="curve" smooth="yes"/>
      <point x="429" y="516" type="line"/>
      <point x="429" y="400" type="line"/>
      <point x="426" y="400" type="line" smooth="yes"/>
      <point x="400" y="400"/>
      <point x="387" y="385"/>
      <point x="384" y="373" type="curve" smooth="yes"/>
      <point x="384" y="324" type="line"/>
      <point x="525" y="324" type="line"/>
      <point x="525" y="369" type="line" smooth="yes"/>
      <point x="525" y="396"/>
      <point x="502" y="402"/>
      <point x="482" y="402" type="curve" smooth="yes"/>
      <point x="478" y="402" type="line"/>
      <point x="478" y="516" type="line"/>
      <point x="484" y="516" type="line" smooth="yes"/>
      <point x="554" y="516"/>
      <point x="639" y="450"/>
      <point x="639" y="378" type="curve" smooth="yes"/>
      <point x="639" y="208" type="line"/>
      <point x="384" y="208" type="line"/>
      <point x="384" y="143" type="line" smooth="yes"/>
      <point x="384" y="121"/>
      <point x="400" y="109"/>
      <point x="425" y="108" type="curve" smooth="yes"/>
      <point x="484" y="108" type="line" smooth="yes"/>
      <point x="517" y="108"/>
      <point x="536" y="134"/>
      <point x="541" y="157" type="curve"/>
      <point x="640" y="120" type="line"/>
      <point x="624" y="55"/>
      <point x="555" y="0"/>
      <point x="484" y="0" type="curve" smooth="yes"/>
      <point x="425" y="0" type="line" smooth="yes"/>
      <point x="380" y="0"/>
      <point x="345" y="9"/>
      <point x="321" y="30" type="curve"/>
      <point x="298" y="12"/>
      <point x="268" y="1"/>
      <point x="232" y="1" type="curve" smooth="yes"/>
      <point x="229" y="1" type="line"/>
      <point x="229" y="113" type="line"/>
      <point x="232" y="113" type="line" smooth="yes"/>
      <point x="262" y="114"/>
      <point x="268" y="146"/>
      <point x="268" y="149" type="curve" smooth="yes"/>
      <point x="268" y="227" type="line"/>
      <point x="230" y="205"/>
      <point x="153" y="190"/>
      <point x="139" y="183" type="curve" smooth="yes"/>
      <point x="133" y="180"/>
      <point x="127" y="173"/>
      <point x="127" y="162" type="curve" smooth="yes"/>
      <point x="127" y="149" type="line" smooth="yes"/>
      <point x="127" y="129"/>
      <point x="137" y="113"/>
      <point x="163" y="113" type="curve" smooth="yes"/>
      <point x="180" y="113" type="line"/>
      <point x="180" y="1" type="line"/>
      <point x="83" y="1"/>
      <point x="26" y="53"/>
    </contour>
  </outline>
</glyph>
<glyph name="uni00F7" format="1">
  <advance width="650"/>
  <unicode hex="00F7"/>
  <outline>
    <contour>
      <point x="68" y="228" type="line"/>
      <point x="68" y="355" type="line"/>
      <point x="518" y="355" type="line"/>
      <point x="518" y="228" type="line"/>
    </contour>
    <component base="uni002E" xOffset="196" yOffset="415"/>
    <component base="uni002E" xOffset="196" yOffset="62"/>
  </outline>
</glyph>
<glyph name="uni00FE" format="1">
  <advance width="422"/>
  <unicode hex="00FE"/>
  <outline>
    <contour>
      <point x="30" y="-182" type="line"/>
      <point x="30" y="700" type="line"/>
      <point x="155" y="700" type="line"/>
      <point x="155" y="-182" type="line"/>
    </contour>
    <contour>
      <point x="196" y="398" type="line"/>
      <point x="196" y="516" type="line"/>
      <point x="228" y="516" type="line" smooth="yes"/>
      <point x="335" y="516"/>
      <point x="396" y="431"/>
      <point x="396" y="375" type="curve" smooth="yes"/>
      <point x="396" y="139" type="line" smooth="yes"/>
      <point x="396" y="86"/>
      <point x="345" y="0"/>
      <point x="232" y="0" type="curve" smooth="yes"/>
      <point x="203" y="0" type="line"/>
      <point x="203" y="118" type="line"/>
      <point x="234" y="118" type="line" smooth="yes"/>
      <point x="271" y="119"/>
      <point x="276" y="134"/>
      <point x="276" y="143" type="curve" smooth="yes"/>
      <point x="276" y="372" type="line" smooth="yes"/>
      <point x="276" y="385"/>
      <point x="258" y="398"/>
      <point x="228" y="398" type="curve" smooth="yes"/>
    </contour>
  </outline>
</glyph>
<glyph name="uni0131" format="1">
  <advance width="174"/>
  <unicode hex="0131"/>
  <outline>
    <contour>
      <point x="26" y="0" type="line"/>
      <point x="26" y="516" type="line"/>
      <point x="148" y="516" type="line"/>
      <point x="148" y="0" type="line"/>
    </contour>
  </outline>
</glyph>
<glyph name="uni0141" format="1">
  <advance width="530"/>
  <unicode hex="0141"/>
  <outline>
    <contour>
      <point x="26" y="302" type="line"/>
      <point x="129" y="382" type="line"/>
      <point x="129" y="700" type="line"/>
      <point x="270" y="700" type="line"/>
      <point x="270" y="492" type="line"/>
      <point x="348" y="553" type="line"/>
      <point x="420" y="460" type="line"/>
      <point x="270" y="343" type="line"/>
      <point x="270" y="139" type="line"/>
      <point x="505" y="139" type="line"/>
      <point x="505" y="0" type="line"/>
      <point x="129" y="0" type="line"/>
      <point x="129" y="233" type="line"/>
      <point x="98" y="209" type="line"/>
    </contour>
  </outline>
</glyph>
<glyph name="uni0142" format="1">
  <advance width="424"/>
  <unicode hex="0142"/>
  <outline>
    <contour>
      <point x="26" y="302" type="line"/>
      <point x="326" y="536" type="line"/>
      <point x="398" y="443" type="line"/>
      <point x="98" y="209" type="line"/>
    </contour>
    <component base="uni006C" xOffset="117"/>
  </outline>
</glyph>
<glyph name="uni0153" format="1">
  <advance width="671"/>
  <unicode hex="0153"/>
  <outline>
    <contour>
      <point x="26" y="141" type="curve" smooth="yes"/>
      <point x="26" y="376" type="line" smooth="yes"/>
      <point x="26" y="421"/>
      <point x="77" y="516"/>
      <point x="184" y="516" type="curve" smooth="yes"/>
      <point x="190" y="516" type="line"/>
      <point x="190" y="398" type="line"/>
      <point x="184" y="398" type="line" smooth="yes"/>
      <point x="151" y="398"/>
      <point x="146" y="374"/>
      <point x="146" y="373" type="curve" smooth="yes"/>
      <point x="146" y="142" type="line" smooth="yes"/>
      <point x="146" y="139"/>
      <point x="154" y="113"/>
      <point x="184" y="113" type="curve" smooth="yes"/>
      <point x="190" y="113" type="line"/>
      <point x="190" y="-1" type="line"/>
      <point x="184" y="-1" type="line" smooth="yes"/>
      <point x="76" y="-1"/>
      <point x="26" y="97"/>
    </contour>
    <contour>
      <point x="231" y="-1" type="line"/>
      <point x="231" y="113" type="line"/>
      <point x="237" y="113" type="line" smooth="yes"/>
      <point x="268" y="114"/>
      <point x="273" y="138"/>
      <point x="273" y="140" type="curve" smooth="yes"/>
      <point x="273" y="372" type="line" smooth="yes"/>
      <point x="273" y="375"/>
      <point x="267" y="398"/>
      <point x="237" y="398" type="curve" smooth="yes"/>
      <point x="231" y="398" type="line"/>
      <point x="231" y="516" type="line"/>
      <point x="237" y="516" type="line" smooth="yes"/>
      <point x="277" y="516"/>
      <point x="309" y="502"/>
      <point x="333" y="482" type="curve"/>
      <point x="358" y="502"/>
      <point x="390" y="516"/>
      <point x="429" y="516" type="curve" smooth="yes"/>
      <point x="434" y="516" type="line"/>
      <point x="434" y="400" type="line"/>
      <point x="431" y="400" type="line" smooth="yes"/>
      <point x="402" y="400"/>
      <point x="395" y="380"/>
      <point x="395" y="369" type="curve" smooth="yes"/>
      <point x="395" y="324" type="line"/>
      <point x="530" y="324" type="line"/>
      <point x="530" y="369" type="line" smooth="yes"/>
      <point x="530" y="396"/>
      <point x="507" y="402"/>
      <point x="487" y="402" type="curve" smooth="yes"/>
      <point x="483" y="402" type="line"/>
      <point x="483" y="516" type="line"/>
      <point x="489" y="516" type="line" smooth="yes"/>
      <point x="559" y="516"/>
      <point x="644" y="450"/>
      <point x="644" y="378" type="curve" smooth="yes"/>
      <point x="644" y="208" type="line"/>
      <point x="395" y="208" type="line"/>
      <point x="395" y="141" type="line" smooth="yes"/>
      <point x="395" y="138"/>
      <point x="402" y="109"/>
      <point x="430" y="108" type="curve" smooth="yes"/>
      <point x="489" y="108" type="line" smooth="yes"/>
      <point x="519" y="108"/>
      <point x="541" y="132"/>
      <point x="545" y="153" type="curve" smooth="yes"/>
      <point x="546" y="157" type="line"/>
      <point x="645" y="120" type="line"/>
      <point x="644" y="118" type="line"/>
      <point x="629" y="54"/>
      <point x="559" y="0"/>
      <point x="489" y="0" type="curve" smooth="yes"/>
      <point x="430" y="0" type="line" smooth="yes"/>
      <point x="390" y="0"/>
      <point x="359" y="14"/>
      <point x="334" y="34" type="curve"/>
      <point x="310" y="14"/>
      <point x="277" y="-1"/>
      <point x="237" y="-1" type="curve" smooth="yes"/>
    </contour>
  </outline>
</glyph>
<glyph name="uni0192" format="1">
  <advance width="382"/>
  <unicode hex="0192"/>
  <outline>
    <contour>
      <point x="26" y="-168" type="line"/>
      <point x="53" y="-63" type="line"/>
      <point x="108" y="-63" type="line" smooth="yes"/>
      <point x="136" y="-62"/>
      <point x="141" y="-39"/>
      <point x="141" y="-36" type="curve" smooth="yes"/>
      <point x="141" y="0" type="line"/>
      <point x="141" y="7" type="line"/>
      <point x="141" y="400" type="line"/>
      <point x="78" y="400" type="line"/>
      <point x="78" y="516" type="line"/>
      <point x="141" y="516" type="line"/>
      <point x="141" y="552" type="line" smooth="yes"/>
      <point x="141" y="597"/>
      <point x="192" y="695"/>
      <point x="295" y="696" type="curve" smooth="yes"/>
      <point x="356" y="696" type="line"/>
      <point x="329" y="579" type="line"/>
      <point x="296" y="579" type="line" smooth="yes"/>
      <point x="268" y="578"/>
      <point x="263" y="555"/>
      <point x="263" y="552" type="curve" smooth="yes"/>
      <point x="263" y="515" type="line"/>
      <point x="329" y="516" type="line"/>
      <point x="329" y="400" type="line"/>
      <point x="263" y="400" type="line"/>
      <point x="263" y="7" type="line"/>
      <point x="263" y="0" type="line"/>
      <point x="263" y="-30" type="line" smooth="yes"/>
      <point x="263" y="-92"/>
      <point x="221" y="-168"/>
      <point x="109" y="-168" type="curve" smooth="yes"/>
    </contour>
  </outline>
</glyph>
<glyph name="uni02DC" format="1">
  <advance width="333"/>
  <unicode hex="02DC"/>
  <outline>
    <contour>
      <point x="26" y="104" type="curve"/>
      <point x="26" y="206" type="line"/>
      <point x="54" y="222"/>
      <point x="77" y="228"/>
      <point x="96" y="228" type="curve" smooth="yes"/>
      <point x="147" y="228"/>
      <point x="176" y="187"/>
      <point x="227" y="187" type="curve" smooth="yes"/>
      <point x="249" y="187"/>
      <point x="274" y="195"/>
      <point x="307" y="215" type="curve"/>
      <point x="307" y="114" type="line"/>
      <point x="273" y="93"/>
      <point x="246" y="86"/>
      <point x="223" y="86" type="curve" smooth="yes"/>
      <point x="170" y="86"/>
      <point x="140" y="126"/>
      <point x="92" y="126" type="curve" smooth="yes"/>
      <point x="74" y="126"/>
      <point x="52" y="120"/>
    </contour>
  </outline>
</glyph>
<glyph name="uni02DD" format="1">
  <advance width="336"/>
  <unicode hex="02DD"/>
  <outline>
    <contour>
      <point x="26" y="605" type="line"/>
      <point x="55" y="757" type="line"/>
      <point x="167" y="757" type="line"/>
      <point x="109" y="605" type="line"/>
    </contour>
    <contour>
      <point x="169" y="605" type="line"/>
      <point x="198" y="757" type="line"/>
      <point x="310" y="757" type="line"/>
      <point x="252" y="605" type="line"/>
    </contour>
  </outline>
</glyph>
<glyph name="uni03C0" format="1">
  <advance width="421"/>
  <unicode hex="03C0"/>
  <outline>
    <contour>
      <point x="-28" y="389" type="line"/>
      <point x="-28" y="516" type="line"/>
      <point x="452" y="516" type="line"/>
      <point x="452" y="389" type="line"/>
      <point x="395" y="389" type="line"/>
      <point x="395" y="142" type="line" smooth="yes"/>
      <point x="395" y="138"/>
      <point x="401" y="111"/>
      <point x="435" y="108" type="curve" smooth="yes"/>
      <point x="438" y="108" type="line"/>
      <point x="438" y="-4" type="line"/>
      <point x="435" y="-4" type="line"/>
      <point x="338" y="0"/>
      <point x="281" y="63"/>
      <point x="281" y="133" type="curve" smooth="yes"/>
      <point x="281" y="389" type="line"/>
      <point x="148" y="389" type="line"/>
      <point x="148" y="-4" type="line"/>
      <point x="26" y="-4" type="line"/>
      <point x="26" y="389" type="line"/>
    </contour>
  </outline>
</glyph>
<glyph name="uni2013" format="1">
  <advance width="532"/>
  <unicode hex="2013"/>
  <outline>
    <contour>
      <point x="26" y="230" type="line"/>
      <point x="26" y="357" type="line"/>
      <point x="506" y="357" type="line"/>
      <point x="506" y="230" type="line"/>
    </contour>
  </outline>
</glyph>
<glyph name="uni2014" format="1">
  <advance width="906"/>
  <unicode hex="2014"/>
  <outline>
    <contour>
      <point x="26" y="230" type="line"/>
      <point x="26" y="357" type="line"/>
      <point x="880" y="357" type="line"/>
      <point x="880" y="230" type="line"/>
    </contour>
  </outline>
</glyph>
<glyph name="uni2020" format="1">
  <advance width="453"/>
  <unicode hex="2020"/>
  <outline>
    <contour>
      <point x="26" y="450" type="line"/>
      <point x="26" y="577" type="line"/>
      <point x="156" y="577" type="line"/>
      <point x="156" y="764" type="line"/>
      <point x="297" y="764" type="line"/>
      <point x="297" y="577" type="line"/>
      <point x="427" y="577" type="line"/>
      <point x="427" y="450" type="line"/>
      <point x="297" y="450" type="line"/>
      <point x="297" y="-56" type="line"/>
      <point x="156" y="-56" type="line"/>
      <point x="156" y="450" type="line"/>
    </contour>
  </outline>
</glyph>
<glyph name="uni2030" format="1">
  <advance width="897"/>
  <unicode hex="2030"/>
  <outline>
    <contour>
      <point x="26" y="528" type="curve" smooth="yes"/>
      <point x="26" y="656"/>
      <point x="75" y="699"/>
      <point x="121" y="702" type="curve"/>
      <point x="122" y="703" type="line"/>
      <point x="122" y="637" type="line"/>
      <point x="121" y="637" type="line"/>
      <point x="96" y="631"/>
      <point x="94" y="583"/>
      <point x="94" y="551" type="curve" smooth="yes"/>
      <point x="94" y="522" type="line" smooth="yes"/>
      <point x="94" y="476"/>
      <point x="95" y="421"/>
      <point x="121" y="415" type="curve"/>
      <point x="122" y="415" type="line"/>
      <point x="122" y="350" type="line"/>
      <point x="120" y="351" type="line"/>
      <point x="86" y="353"/>
      <point x="26" y="378"/>
    </contour>
    <contour>
      <point x="67" y="0" type="line"/>
      <point x="497" y="700" type="line"/>
      <point x="570" y="700" type="line"/>
      <point x="147" y="0" type="line"/>
    </contour>
    <contour>
      <point x="150" y="350" type="line"/>
      <point x="150" y="415" type="line"/>
      <point x="151" y="415" type="line"/>
      <point x="177" y="421"/>
      <point x="178" y="476"/>
      <point x="178" y="522" type="curve" smooth="yes"/>
      <point x="178" y="551" type="line" smooth="yes"/>
      <point x="178" y="583"/>
      <point x="176" y="631"/>
      <point x="151" y="637" type="curve"/>
      <point x="150" y="637" type="line"/>
      <point x="150" y="703" type="line"/>
      <point x="151" y="702" type="line"/>
      <point x="197" y="699"/>
      <point x="246" y="657"/>
      <point x="246" y="528" type="curve" smooth="yes"/>
      <point x="246" y="378"/>
      <point x="186" y="353"/>
      <point x="152" y="351" type="curve"/>
    </contour>
    <contour>
      <point x="393" y="178" type="curve" smooth="yes"/>
      <point x="393" y="306"/>
      <point x="442" y="349"/>
      <point x="488" y="352" type="curve" smooth="yes"/>
      <point x="490" y="352" type="line"/>
      <point x="490" y="287" type="line"/>
      <point x="488" y="287" type="line"/>
      <point x="463" y="281"/>
      <point x="461" y="233"/>
      <point x="461" y="201" type="curve" smooth="yes"/>
      <point x="461" y="171" type="line" smooth="yes"/>
      <point x="461" y="125"/>
      <point x="462" y="71"/>
      <point x="488" y="65" type="curve"/>
      <point x="489" y="65" type="line"/>
      <point x="489" y="0" type="line"/>
      <point x="487" y="0" type="line" smooth="yes"/>
      <point x="453" y="2"/>
      <point x="393" y="28"/>
    </contour>
    <contour>
      <point x="516" y="287" type="line"/>
      <point x="516" y="352" type="line"/>
      <point x="518" y="352" type="line" smooth="yes"/>
      <point x="564" y="349"/>
      <point x="614" y="307"/>
      <point x="614" y="178" type="curve" smooth="yes"/>
      <point x="614" y="28"/>
      <point x="553" y="2"/>
      <point x="519" y="0" type="curve" smooth="yes"/>
      <point x="517" y="0" type="line"/>
      <point x="517" y="65" type="line"/>
      <point x="518" y="65" type="line"/>
      <point x="544" y="71"/>
      <point x="546" y="125"/>
      <point x="546" y="171" type="curve" smooth="yes"/>
      <point x="546" y="201" type="line" smooth="yes"/>
      <point x="546" y="233"/>
      <point x="543" y="281"/>
      <point x="518" y="287" type="curve"/>
    </contour>
    <contour>
      <point x="651" y="178" type="curve" smooth="yes"/>
      <point x="651" y="306"/>
      <point x="700" y="349"/>
      <point x="746" y="352" type="curve" smooth="yes"/>
      <point x="748" y="352" type="line"/>
      <point x="748" y="287" type="line"/>
      <point x="746" y="287" type="line"/>
      <point x="721" y="281"/>
      <point x="719" y="233"/>
      <point x="719" y="201" type="curve" smooth="yes"/>
      <point x="719" y="171" type="line" smooth="yes"/>
      <point x="719" y="125"/>
      <point x="720" y="71"/>
      <point x="746" y="65" type="curve"/>
      <point x="747" y="65" type="line"/>
      <point x="747" y="0" type="line"/>
      <point x="745" y="0" type="line" smooth="yes"/>
      <point x="711" y="2"/>
      <point x="651" y="28"/>
    </contour>
    <contour>
      <point x="774" y="287" type="line"/>
      <point x="774" y="352" type="line"/>
      <point x="776" y="352" type="line" smooth="yes"/>
      <point x="822" y="349"/>
      <point x="872" y="307"/>
      <point x="872" y="178" type="curve" smooth="yes"/>
      <point x="872" y="28"/>
      <point x="811" y="2"/>
      <point x="777" y="0" type="curve" smooth="yes"/>
      <point x="775" y="0" type="line"/>
      <point x="775" y="65" type="line"/>
      <point x="776" y="65" type="line"/>
      <point x="802" y="71"/>
      <point x="804" y="125"/>
      <point x="804" y="171" type="curve" smooth="yes"/>
      <point x="804" y="201" type="line" smooth="yes"/>
      <point x="804" y="233"/>
      <point x="801" y="281"/>
      <point x="776" y="287" type="curve"/>
    </contour>
  </outline>
</glyph>
<glyph name="uni203A" format="1">
  <advance width="338"/>
  <unicode hex="203A"/>
  <outline>
    <contour>
      <point x="26" y="79" type="line"/>
      <point x="157" y="292" type="line"/>
      <point x="26" y="500" type="line"/>
      <point x="181" y="500" type="line"/>
      <point x="312" y="292" type="line"/>
      <point x="181" y="79" type="line"/>
    </contour>
  </outline>
</glyph>
<glyph name="uni20AC" format="1">
  <advance width="567"/>
  <unicode hex="20AC"/>
  <outline>
    <contour>
      <point x="50" y="258" type="line"/>
      <point x="50" y="317" type="line"/>
      <point x="99" y="317" type="line"/>
      <point x="99" y="377" type="line"/>
      <point x="50" y="377" type="line"/>
      <point x="50" y="436" type="line"/>
      <point x="99" y="436" type="line"/>
      <point x="99" y="496" type="line" smooth="yes"/>
      <point x="99" y="540"/>
      <point x="106" y="576"/>
      <point x="134" y="613" type="curve" smooth="yes"/>
      <point x="172" y="666"/>
      <point x="217" y="696"/>
      <point x="278" y="698" type="curve"/>
      <point x="278" y="558" type="line"/>
      <point x="239" y="543"/>
      <point x="236" y="532"/>
      <point x="236" y="488" type="curve" smooth="yes"/>
      <point x="236" y="436" type="line"/>
      <point x="408" y="436" type="line"/>
      <point x="408" y="376" type="line"/>
      <point x="236" y="376" type="line"/>
      <point x="236" y="317" type="line"/>
      <point x="408" y="317" type="line"/>
      <point x="408" y="258" type="line"/>
      <point x="236" y="258" type="line"/>
      <point x="236" y="202" type="line" smooth="yes"/>
      <point x="236" y="155"/>
      <point x="254" y="154"/>
      <point x="278" y="141" type="curve"/>
      <point x="278" y="2" type="line"/>
      <point x="197" y="8"/>
      <point x="168" y="45"/>
      <point x="134" y="90" type="curve" smooth="yes"/>
      <point x="113" y="118"/>
      <point x="101" y="149"/>
      <point x="99" y="182" type="curve" smooth="yes"/>
      <point x="99" y="258" type="line"/>
    </contour>
    <contour>
      <point x="338" y="2" type="curve"/>
      <point x="338" y="142" type="line"/>
      <point x="366" y="151"/>
      <point x="381" y="165"/>
      <point x="381" y="199" type="curve" smooth="yes"/>
      <point x="380" y="237" type="line"/>
      <point x="517" y="186" type="line"/>
      <point x="517" y="156"/>
      <point x="501" y="102"/>
      <point x="464" y="64" type="curve" smooth="yes"/>
      <point x="426" y="25"/>
      <point x="387" y="3"/>
    </contour>
    <contour>
      <point x="338" y="558" type="curve"/>
      <point x="338" y="698" type="line"/>
      <point x="387" y="697"/>
      <point x="426" y="675"/>
      <point x="464" y="636" type="curve" smooth="yes"/>
      <point x="501" y="598"/>
      <point x="517" y="544"/>
      <point x="517" y="514" type="curve"/>
      <point x="380" y="463" type="line"/>
      <point x="381" y="501" type="line" smooth="yes"/>
      <point x="381" y="535"/>
      <point x="366" y="549"/>
    </contour>
  </outline>
</glyph>
<glyph name="uni2113" format="1">
  <advance width="184"/>
  <unicode hex="2113"/>
  <outline>
    <contour>
      <point x="25" y="193" type="curve" smooth="yes"/>
      <point x="25" y="700" type="line"/>
      <point x="156" y="700" type="line"/>
      <point x="156" y="193" type="line"/>
      <point x="157" y="147"/>
      <point x="207" y="137"/>
      <point x="212" y="137" type="curve"/>
      <point x="212" y="-5" type="line"/>
      <point x="152" y="-5"/>
      <point x="25" y="49"/>
    </contour>
  </outline>
</glyph>
<glyph name="uni2122" format="1">
  <advance width="403"/>
  <unicode hex="2122"/>
  <outline>
    <contour>
      <point x="26" y="653" type="line"/>
      <point x="26" y="700" type="line"/>
      <point x="165" y="700" type="line"/>
      <point x="165" y="653" type="line"/>
      <point x="120" y="653" type="line"/>
      <point x="120" y="484" type="line"/>
      <point x="72" y="484" type="line"/>
      <point x="72" y="653" type="line"/>
    </contour>
    <contour>
      <point x="188" y="484" type="line"/>
      <point x="188" y="628" type="line"/>
      <point x="191" y="628" type="line"/>
      <point x="236" y="522" type="line"/>
      <point x="236" y="484" type="line"/>
    </contour>
    <contour>
      <point x="188" y="669" type="line"/>
      <point x="188" y="700" type="line"/>
      <point x="225" y="700" type="line"/>
      <point x="281" y="564" type="line"/>
      <point x="313" y="636" type="line"/>
      <point x="317" y="636" type="line"/>
      <point x="317" y="529" type="line"/>
      <point x="298" y="484" type="line"/>
      <point x="265" y="484" type="line"/>
    </contour>
    <contour>
      <point x="330" y="484" type="line"/>
      <point x="330" y="700" type="line"/>
      <point x="377" y="700" type="line"/>
      <point x="377" y="484" type="line"/>
    </contour>
  </outline>
</glyph>
<glyph name="uni2126" format="1">
  <advance width="420"/>
  <unicode hex="2126"/>
  <outline>
    <contour>
      <point x="13" y="-1" type="line"/>
      <point x="13" y="62" type="line"/>
      <point x="59.5935" y="62" type="line"/>
      <point x="38.2825" y="89.9881"/>
      <point x="28" y="121.047"/>
      <point x="28" y="141" type="curve" smooth="yes"/>
      <point x="28" y="376" type="line" smooth="yes"/>
      <point x="28" y="421"/>
      <point x="79" y="516"/>
      <point x="186" y="516" type="curve" smooth="yes"/>
      <point x="192" y="516" type="line"/>
      <point x="192" y="398" type="line"/>
      <point x="186" y="398" type="line" smooth="yes"/>
      <point x="153" y="398"/>
      <point x="148" y="373"/>
      <point x="148" y="363" type="curve" smooth="yes"/>
      <point x="148" y="154" type="line" smooth="yes"/>
      <point x="148" y="135"/>
      <point x="156" y="117"/>
      <point x="186" y="117" type="curve" smooth="yes"/>
      <point x="192" y="117" type="line"/>
      <point x="192" y="-1" type="line"/>
    </contour>
    <contour>
      <point x="233" y="-1" type="line"/>
      <point x="233" y="117" type="line"/>
      <point x="239" y="117" type="line" smooth="yes"/>
      <point x="270" y="118"/>
      <point x="275" y="141"/>
      <point x="275" y="152" type="curve" smooth="yes"/>
      <point x="275" y="363" type="line" smooth="yes"/>
      <point x="275" y="380"/>
      <point x="269" y="398"/>
      <point x="239" y="398" type="curve" smooth="yes"/>
      <point x="233" y="398" type="line"/>
      <point x="233" y="516" type="line"/>
      <point x="239" y="516" type="line" smooth="yes"/>
      <point x="342" y="516"/>
      <point x="392" y="421"/>
      <point x="392" y="376" type="curve" smooth="yes"/>
      <point x="392" y="141" type="line" smooth="yes"/>
      <point x="392" y="120.692"/>
      <point x="382.021" y="89.794"/>
      <point x="361.511" y="62" type="curve"/>
      <point x="407" y="62" type="line"/>
      <point x="407" y="-1" type="line"/>
    </contour>
  </outline>
</glyph>
<glyph name="uni212E" format="1">
  <advance width="472"/>
  <unicode hex="212E"/>
  <outline>
    <contour>
      <point x="-3" y="141" type="curve" smooth="yes"/>
      <point x="-3" y="377" type="line"/>
      <point x="-3" y="440"/>
      <point x="80" y="516"/>
      <point x="182" y="516" type="curve" smooth="yes"/>
      <point x="187" y="516" type="line"/>
      <point x="187" y="400" type="line"/>
      <point x="184" y="400" type="line" smooth="yes"/>
      <point x="155" y="400"/>
      <point x="115" y="401"/>
      <point x="115" y="369" type="curve" smooth="yes"/>
      <point x="115" y="324" type="line"/>
      <point x="302" y="324" type="line"/>
      <point x="302" y="369" type="line" smooth="yes"/>
      <point x="302" y="396"/>
      <point x="260" y="402"/>
      <point x="240" y="402" type="curve" smooth="yes"/>
      <point x="236" y="402" type="line"/>
      <point x="236" y="516" type="line"/>
      <point x="242" y="516" type="line" smooth="yes"/>
      <point x="312" y="516"/>
      <point x="416" y="450"/>
      <point x="416" y="378" type="curve" smooth="yes"/>
      <point x="416" y="212" type="line"/>
      <point x="115" y="212" type="line"/>
      <point x="115" y="141" type="line" smooth="yes"/>
      <point x="115" y="124"/>
      <point x="155" y="109"/>
      <point x="183" y="108" type="curve" smooth="yes"/>
      <point x="188" y="108" type="line"/>
      <point x="188" y="0" type="line"/>
      <point x="183" y="0" type="line" smooth="yes"/>
      <point x="79" y="0"/>
      <point x="-3" y="61"/>
    </contour>
    <contour>
      <point x="236" y="0" type="line"/>
      <point x="236" y="111" type="line"/>
      <point x="242" y="111" type="line" smooth="yes"/>
      <point x="273" y="113"/>
      <point x="313" y="132"/>
      <point x="317" y="153" type="curve" smooth="yes"/>
      <point x="318" y="157" type="line"/>
      <point x="417" y="120" type="line"/>
      <point x="416" y="118" type="line" smooth="yes"/>
      <point x="401" y="54"/>
      <point x="312" y="0"/>
      <point x="242" y="0" type="curve" smooth="yes"/>
    </contour>
  </outline>
</glyph>
<glyph name="uni2202" format="1">
  <advance width="420"/>
  <unicode hex="2202"/>
  <outline>
    <contour>
      <point x="28" y="141" type="curve" smooth="yes"/>
      <point x="28" y="376" type="line" smooth="yes"/>
      <point x="28" y="421"/>
      <point x="79" y="516"/>
      <point x="186" y="516" type="curve" smooth="yes"/>
      <point x="192" y="516" type="line"/>
      <point x="192" y="398" type="line"/>
      <point x="186" y="398" type="line" smooth="yes"/>
      <point x="153" y="398"/>
      <point x="148" y="373"/>
      <point x="148" y="363" type="curve" smooth="yes"/>
      <point x="148" y="154" type="line" smooth="yes"/>
      <point x="148" y="135"/>
      <point x="156" y="117"/>
      <point x="186" y="117" type="curve" smooth="yes"/>
      <point x="192" y="117" type="line"/>
      <point x="192" y="-1" type="line"/>
      <point x="186" y="-1" type="line" smooth="yes"/>
      <point x="78" y="-1"/>
      <point x="28" y="97"/>
    </contour>
    <contour>
      <point x="70" y="647" type="curve"/>
      <point x="70" y="714" type="line"/>
      <point x="189" y="714"/>
      <point x="276" y="695"/>
      <point x="330" y="641" type="curve" smooth="yes"/>
      <point x="396.03" y="574.97"/>
      <point x="392" y="512.438"/>
      <point x="392" y="442" type="curve" smooth="yes"/>
      <point x="392" y="376" type="line"/>
      <point x="392" y="364" type="line"/>
      <point x="392" y="141" type="line" smooth="yes"/>
      <point x="392" y="96"/>
      <point x="343" y="-1"/>
      <point x="239" y="-1" type="curve" smooth="yes"/>
      <point x="233" y="-1" type="line"/>
      <point x="233" y="117" type="line"/>
      <point x="239" y="117" type="line" smooth="yes"/>
      <point x="270" y="118"/>
      <point x="275" y="141"/>
      <point x="275" y="152" type="curve" smooth="yes"/>
      <point x="275" y="363" type="line" smooth="yes"/>
      <point x="275" y="380"/>
      <point x="269" y="398"/>
      <point x="239" y="398" type="curve" smooth="yes"/>
      <point x="233" y="398" type="line"/>
      <point x="233" y="516" type="line"/>
      <point x="239" y="516" type="line" smooth="yes"/>
      <point x="251" y="516"/>
      <point x="262" y="515"/>
      <point x="273" y="512" type="curve"/>
      <point x="273" y="594"/>
      <point x="182" y="647"/>
    </contour>
  </outline>
</glyph>
<glyph name="uni220F" format="1">
  <advance width="458"/>
  <unicode hex="220F"/>
  <outline>
    <contour>
      <point x="2" y="598" type="line"/>
      <point x="35" y="598" type="line"/>
      <point x="35" y="-140" type="line"/>
      <point x="131" y="-140" type="line"/>
      <point x="131" y="598" type="line"/>
      <point x="327" y="598" type="line"/>
      <point x="327" y="-140" type="line"/>
      <point x="423" y="-140" type="line"/>
      <point x="423" y="598" type="line"/>
      <point x="456" y="598" type="line"/>
      <point x="456" y="694" type="line"/>
      <point x="2" y="694" type="line"/>
    </contour>
  </outline>
</glyph>
<glyph name="uni221A" format="1">
  <advance width="560"/>
  <unicode hex="221A"/>
  <outline>
    <contour>
      <point x="6" y="513" type="line"/>
      <point x="181" y="575" type="line"/>
      <point x="358.562" y="133.393" type="line"/>
      <point x="488" y="819" type="line"/>
      <point x="554" y="819" type="line"/>
      <point x="403" y="-2" type="line"/>
      <point x="316" y="-2" type="line"/>
      <point x="116.558" y="494" type="line"/>
      <point x="22" y="461" type="line"/>
    </contour>
  </outline>
</glyph>
<glyph name="uni221E" format="1">
  <advance width="420"/>
  <unicode hex="221E"/>
  <outline>
    <contour>
      <point x="28" y="174" type="curve" smooth="yes"/>
      <point x="28" y="409" type="line" smooth="yes"/>
      <point x="28" y="454"/>
      <point x="79" y="549"/>
      <point x="186" y="549" type="curve" smooth="yes"/>
      <point x="192" y="549" type="line"/>
      <point x="192" y="431" type="line"/>
      <point x="186" y="431" type="line" smooth="yes"/>
      <point x="153" y="431"/>
      <point x="148" y="406"/>
      <point x="148" y="396" type="curve"/>
      <point x="148" y="187" type="line"/>
      <point x="148" y="168"/>
      <point x="156" y="150"/>
      <point x="186" y="150" type="curve" smooth="yes"/>
      <point x="192" y="150" type="line"/>
      <point x="192" y="32" type="line"/>
      <point x="186" y="32" type="line" smooth="yes"/>
      <point x="78" y="32"/>
      <point x="28" y="130"/>
    </contour>
    <contour>
      <point x="233" y="32" type="line"/>
      <point x="233" y="150" type="line"/>
      <point x="239" y="150" type="line" smooth="yes"/>
      <point x="270" y="151"/>
      <point x="275" y="174"/>
      <point x="275" y="185" type="curve"/>
      <point x="275" y="396" type="line"/>
      <point x="275" y="413"/>
      <point x="269" y="431"/>
      <point x="239" y="431" type="curve" smooth="yes"/>
      <point x="233" y="431" type="line"/>
      <point x="233" y="549" type="line"/>
      <point x="239" y="549" type="line" smooth="yes"/>
      <point x="342" y="549"/>
      <point x="392" y="454"/>
      <point x="392" y="409" type="curve" smooth="yes"/>
      <point x="392" y="174" type="line" smooth="yes"/>
      <point x="392" y="129"/>
      <point x="343" y="32"/>
      <point x="239" y="32" type="curve" smooth="yes"/>
    </contour>
    <contour>
      <point x="436.51" y="167.088" type="curve" smooth="yes"/>
      <point x="436.51" y="425" type="line" smooth="yes"/>
      <point x="436.51" y="474.388"/>
      <point x="492.482" y="578.65"/>
      <point x="609.915" y="578.65" type="curve" smooth="yes"/>
      <point x="616.5" y="578.65" type="line"/>
      <point x="616.5" y="449.145" type="line"/>
      <point x="609.915" y="449.145" type="line" smooth="yes"/>
      <point x="573.697" y="449.145"/>
      <point x="568.21" y="421.707"/>
      <point x="568.21" y="410.732" type="curve"/>
      <point x="568.21" y="181.355" type="line"/>
      <point x="568.21" y="160.503"/>
      <point x="576.99" y="140.747"/>
      <point x="609.915" y="140.747" type="curve" smooth="yes"/>
      <point x="616.5" y="140.747" type="line"/>
      <point x="616.5" y="11.2422" type="line"/>
      <point x="609.915" y="11.2422" type="line" smooth="yes"/>
      <point x="491.385" y="11.2422"/>
      <point x="436.51" y="118.798"/>
    </contour>
    <contour>
      <point x="661.497" y="11.2422" type="line"/>
      <point x="661.497" y="140.747" type="line"/>
      <point x="668.082" y="140.747" type="line" smooth="yes"/>
      <point x="702.105" y="141.845"/>
      <point x="707.593" y="167.088"/>
      <point x="707.593" y="179.16" type="curve"/>
      <point x="707.593" y="410.732" type="line"/>
      <point x="707.593" y="429.39"/>
      <point x="701.008" y="449.145"/>
      <point x="668.082" y="449.145" type="curve" smooth="yes"/>
      <point x="661.497" y="449.145" type="line"/>
      <point x="661.497" y="578.65" type="line"/>
      <point x="668.082" y="578.65" type="line" smooth="yes"/>
      <point x="781.125" y="578.65"/>
      <point x="836" y="474.388"/>
      <point x="836" y="425" type="curve" smooth="yes"/>
      <point x="836" y="167.088" type="line" smooth="yes"/>
      <point x="836" y="117.7"/>
      <point x="782.223" y="11.2422"/>
      <point x="668.082" y="11.2422" type="curve" smooth="yes"/>
    </contour>
  </outline>
</glyph>
<glyph name="uni222B" format="1">
  <advance width="285"/>
  <unicode hex="222B"/>
  <outline>
    <contour>
      <point x="1" y="-140" type="curve"/>
      <point x="1" y="-205" type="line"/>
      <point x="61" y="-205"/>
      <point x="187" y="-147"/>
      <point x="187" y="-3" type="curve" smooth="yes"/>
      <point x="187" y="625" type="line" smooth="yes"/>
      <point x="187" y="744"/>
      <point x="277" y="754"/>
      <point x="282" y="754" type="curve"/>
      <point x="282" y="819" type="line"/>
      <point x="222" y="819"/>
      <point x="98" y="769"/>
      <point x="98" y="625" type="curve" smooth="yes"/>
      <point x="98" y="-3" type="line"/>
      <point x="98" y="-116"/>
      <point x="6" y="-140"/>
    </contour>
  </outline>
</glyph>
<glyph name="uni2248" format="1">
  <advance width="568"/>
  <unicode hex="2248"/>
  <outline>
    <contour>
      <point x="50" y="164" type="curve"/>
      <point x="50" y="297" type="line"/>
      <point x="95" y="323"/>
      <point x="132" y="332"/>
      <point x="163" y="332" type="curve" smooth="yes"/>
      <point x="250" y="332"/>
      <point x="299" y="259"/>
      <point x="387" y="259" type="curve" smooth="yes"/>
      <point x="422" y="259"/>
      <point x="464" y="271"/>
      <point x="518" y="304" type="curve"/>
      <point x="518" y="173" type="line"/>
      <point x="462" y="139"/>
      <point x="418" y="127"/>
      <point x="381" y="127" type="curve" smooth="yes"/>
      <point x="289" y="127"/>
      <point x="239" y="200"/>
      <point x="157" y="200" type="curve" smooth="yes"/>
      <point x="127" y="200"/>
      <point x="92" y="191"/>
    </contour>
    <contour>
      <point x="50" y="402" type="curve"/>
      <point x="50" y="535" type="line"/>
      <point x="95" y="561"/>
      <point x="132" y="570"/>
      <point x="163" y="570" type="curve" smooth="yes"/>
      <point x="250" y="570"/>
      <point x="299" y="497"/>
      <point x="387" y="497" type="curve" smooth="yes"/>
      <point x="422" y="497"/>
      <point x="464" y="509"/>
      <point x="518" y="542" type="curve"/>
      <point x="518" y="411" type="line"/>
      <point x="462" y="377"/>
      <point x="418" y="365"/>
      <point x="381" y="365" type="curve" smooth="yes"/>
      <point x="289" y="365"/>
      <point x="239" y="438"/>
      <point x="157" y="438" type="curve" smooth="yes"/>
      <point x="127" y="438"/>
      <point x="92" y="429"/>
    </contour>
  </outline>
</glyph>
<glyph name="uni2264" format="1">
  <advance width="414"/>
  <unicode hex="2264"/>
  <outline>
    <contour>
      <point x="-16" y="-16" type="line"/>
      <point x="434" y="-16" type="line"/>
      <point x="434" y="-123" type="line"/>
      <point x="-16" y="-123" type="line"/>
    </contour>
    <contour>
      <point x="30" y="325" type="line"/>
      <point x="30" y="389" type="line"/>
      <point x="384" y="567" type="line"/>
      <point x="384" y="437" type="line"/>
      <point x="208" y="359" type="line"/>
      <point x="384" y="273" type="line"/>
      <point x="384" y="146" type="line"/>
    </contour>
  </outline>
</glyph>
<glyph name="uni25CA" format="1">
  <advance width="414"/>
  <unicode hex="25CA"/>
  <outline>
    <contour>
      <point x="-3" y="352" type="line"/>
      <point x="175" y="706" type="line"/>
      <point x="239" y="706" type="line"/>
      <point x="418" y="352" type="line"/>
      <point x="239" y="-2" type="line"/>
      <point x="175" y="-2" type="line"/>
    </contour>
    <contour>
      <point x="-3" y="352" type="line"/>
      <point x="175" y="706" type="line"/>
      <point x="239" y="706" type="line"/>
      <point x="418" y="352" type="line"/>
      <point x="239" y="-2" type="line"/>
      <point x="175" y="-2" type="line"/>
    </contour>
    <contour>
      <point x="127" y="352" type="line"/>
      <point x="205" y="176" type="line"/>
      <point x="291" y="352" type="line"/>
      <point x="205" y="528" type="line"/>
    </contour>
    <contour>
      <point x="127" y="352" type="line"/>
      <point x="205" y="176" type="line"/>
      <point x="291" y="352" type="line"/>
      <point x="205" y="528" type="line"/>
    </contour>
  </outline>
</glyph>
<glyph name="uniFB01" format="1">
  <advance width="494"/>
  <unicode hex="FB01"/>
  <outline>
    <contour>
      <point x="26" y="400" type="line"/>
      <point x="26" y="516" type="line"/>
      <point x="89" y="516" type="line"/>
      <point x="89" y="552" type="line" smooth="yes"/>
      <point x="89" y="597"/>
      <point x="140" y="695"/>
      <point x="243" y="696" type="curve" smooth="yes"/>
      <point x="304" y="696" type="line"/>
      <point x="277" y="579" type="line"/>
      <point x="244" y="579" type="line" smooth="yes"/>
      <point x="216" y="578"/>
      <point x="211" y="555"/>
      <point x="211" y="552" type="curve" smooth="yes"/>
      <point x="211" y="516" type="line"/>
      <point x="457" y="516" type="line"/>
      <point x="457" y="0" type="line"/>
      <point x="335" y="0" type="line"/>
      <point x="335" y="400" type="line"/>
      <point x="211" y="400" type="line"/>
      <point x="211" y="0" type="line"/>
      <point x="89" y="0" type="line"/>
      <point x="89" y="400" type="line"/>
    </contour>
    <contour>
      <point x="322" y="630" type="curve" smooth="yes"/>
      <point x="322" y="670"/>
      <point x="355" y="703"/>
      <point x="395" y="703" type="curve" smooth="yes"/>
      <point x="435" y="703"/>
      <point x="468" y="670"/>
      <point x="468" y="630" type="curve" smooth="yes"/>
      <point x="468" y="591"/>
      <point x="435" y="558"/>
      <point x="395" y="558" type="curve" smooth="yes"/>
      <point x="355" y="558"/>
      <point x="322" y="591"/>
    </contour>
  </outline>
</glyph>
<glyph name="uniFB02" format="1">
  <advance width="483"/>
  <unicode hex="FB02"/>
  <outline>
    <contour>
      <point x="26" y="400" type="line"/>
      <point x="26" y="516" type="line"/>
      <point x="89" y="516" type="line"/>
      <point x="89" y="552" type="line" smooth="yes"/>
      <point x="89" y="597"/>
      <point x="140" y="695"/>
      <point x="243" y="696" type="curve" smooth="yes"/>
      <point x="457" y="696" type="line"/>
      <point x="457" y="0" type="line"/>
      <point x="331" y="0" type="line"/>
      <point x="331" y="579" type="line"/>
      <point x="244" y="579" type="line" smooth="yes"/>
      <point x="216" y="578"/>
      <point x="211" y="555"/>
      <point x="211" y="552" type="curve" smooth="yes"/>
      <point x="211" y="515" type="line"/>
      <point x="277" y="516" type="line"/>
      <point x="277" y="400" type="line"/>
      <point x="211" y="400" type="line"/>
      <point x="211" y="0" type="line"/>
      <point x="89" y="0" type="line"/>
      <point x="89" y="400" type="line"/>
    </contour>
  </outline>
</glyph>
